<?xml version="1.0" encoding="utf-8" standalone="no"?>
<!DOCTYPE svg PUBLIC "-//W3C//DTD SVG 1.1//EN"
  "http://www.w3.org/Graphics/SVG/1.1/DTD/svg11.dtd">
<!-- Created with matplotlib (https://matplotlib.org/) -->
<svg height="432pt" version="1.1" viewBox="0 0 720 432" width="720pt" xmlns="http://www.w3.org/2000/svg" xmlns:xlink="http://www.w3.org/1999/xlink">
 <defs>
  <style type="text/css">
*{stroke-linecap:butt;stroke-linejoin:round;}
  </style>
 </defs>
 <g id="figure_1">
  <g id="patch_1">
   <path d="M 0 432 
L 720 432 
L 720 0 
L 0 0 
z
" style="fill:#ffffff;"/>
  </g>
  <g id="axes_1">
   <g id="patch_2">
    <path d="M 90 384.48 
L 648 384.48 
L 648 51.84 
L 90 51.84 
z
" style="fill:#ffffff;"/>
   </g>
   <g id="matplotlib.axis_1">
    <g id="xtick_1">
     <g id="line2d_1">
      <defs>
       <path d="M 0 0 
L 0 3.5 
" id="m2afef0e966" style="stroke:#000000;stroke-width:0.8;"/>
      </defs>
      <g>
       <use style="stroke:#000000;stroke-width:0.8;" x="103.708082" xlink:href="#m2afef0e966" y="384.48"/>
      </g>
     </g>
     <g id="text_1">
      <!-- −0.75 -->
      <defs>
       <path d="M 10.59375 35.5 
L 73.1875 35.5 
L 73.1875 27.203125 
L 10.59375 27.203125 
z
" id="DejaVuSans-8722"/>
       <path d="M 31.78125 66.40625 
Q 24.171875 66.40625 20.328125 58.90625 
Q 16.5 51.421875 16.5 36.375 
Q 16.5 21.390625 20.328125 13.890625 
Q 24.171875 6.390625 31.78125 6.390625 
Q 39.453125 6.390625 43.28125 13.890625 
Q 47.125 21.390625 47.125 36.375 
Q 47.125 51.421875 43.28125 58.90625 
Q 39.453125 66.40625 31.78125 66.40625 
z
M 31.78125 74.21875 
Q 44.046875 74.21875 50.515625 64.515625 
Q 56.984375 54.828125 56.984375 36.375 
Q 56.984375 17.96875 50.515625 8.265625 
Q 44.046875 -1.421875 31.78125 -1.421875 
Q 19.53125 -1.421875 13.0625 8.265625 
Q 6.59375 17.96875 6.59375 36.375 
Q 6.59375 54.828125 13.0625 64.515625 
Q 19.53125 74.21875 31.78125 74.21875 
z
" id="DejaVuSans-48"/>
       <path d="M 10.6875 12.40625 
L 21 12.40625 
L 21 0 
L 10.6875 0 
z
" id="DejaVuSans-46"/>
       <path d="M 8.203125 72.90625 
L 55.078125 72.90625 
L 55.078125 68.703125 
L 28.609375 0 
L 18.3125 0 
L 43.21875 64.59375 
L 8.203125 64.59375 
z
" id="DejaVuSans-55"/>
       <path d="M 10.796875 72.90625 
L 49.515625 72.90625 
L 49.515625 64.59375 
L 19.828125 64.59375 
L 19.828125 46.734375 
Q 21.96875 47.46875 24.109375 47.828125 
Q 26.265625 48.1875 28.421875 48.1875 
Q 40.625 48.1875 47.75 41.5 
Q 54.890625 34.8125 54.890625 23.390625 
Q 54.890625 11.625 47.5625 5.09375 
Q 40.234375 -1.421875 26.90625 -1.421875 
Q 22.3125 -1.421875 17.546875 -0.640625 
Q 12.796875 0.140625 7.71875 1.703125 
L 7.71875 11.625 
Q 12.109375 9.234375 16.796875 8.0625 
Q 21.484375 6.890625 26.703125 6.890625 
Q 35.15625 6.890625 40.078125 11.328125 
Q 45.015625 15.765625 45.015625 23.390625 
Q 45.015625 31 40.078125 35.4375 
Q 35.15625 39.890625 26.703125 39.890625 
Q 22.75 39.890625 18.8125 39.015625 
Q 14.890625 38.140625 10.796875 36.28125 
z
" id="DejaVuSans-53"/>
      </defs>
      <g transform="translate(88.385426 399.078438)scale(0.1 -0.1)">
       <use xlink:href="#DejaVuSans-8722"/>
       <use x="83.789062" xlink:href="#DejaVuSans-48"/>
       <use x="147.412109" xlink:href="#DejaVuSans-46"/>
       <use x="179.199219" xlink:href="#DejaVuSans-55"/>
       <use x="242.822266" xlink:href="#DejaVuSans-53"/>
      </g>
     </g>
    </g>
    <g id="xtick_2">
     <g id="line2d_2">
      <g>
       <use style="stroke:#000000;stroke-width:0.8;" x="175.902349" xlink:href="#m2afef0e966" y="384.48"/>
      </g>
     </g>
     <g id="text_2">
      <!-- −0.50 -->
      <g transform="translate(160.579693 399.078438)scale(0.1 -0.1)">
       <use xlink:href="#DejaVuSans-8722"/>
       <use x="83.789062" xlink:href="#DejaVuSans-48"/>
       <use x="147.412109" xlink:href="#DejaVuSans-46"/>
       <use x="179.199219" xlink:href="#DejaVuSans-53"/>
       <use x="242.822266" xlink:href="#DejaVuSans-48"/>
      </g>
     </g>
    </g>
    <g id="xtick_3">
     <g id="line2d_3">
      <g>
       <use style="stroke:#000000;stroke-width:0.8;" x="248.096615" xlink:href="#m2afef0e966" y="384.48"/>
      </g>
     </g>
     <g id="text_3">
      <!-- −0.25 -->
      <defs>
       <path d="M 19.1875 8.296875 
L 53.609375 8.296875 
L 53.609375 0 
L 7.328125 0 
L 7.328125 8.296875 
Q 12.9375 14.109375 22.625 23.890625 
Q 32.328125 33.6875 34.8125 36.53125 
Q 39.546875 41.84375 41.421875 45.53125 
Q 43.3125 49.21875 43.3125 52.78125 
Q 43.3125 58.59375 39.234375 62.25 
Q 35.15625 65.921875 28.609375 65.921875 
Q 23.96875 65.921875 18.8125 64.3125 
Q 13.671875 62.703125 7.8125 59.421875 
L 7.8125 69.390625 
Q 13.765625 71.78125 18.9375 73 
Q 24.125 74.21875 28.421875 74.21875 
Q 39.75 74.21875 46.484375 68.546875 
Q 53.21875 62.890625 53.21875 53.421875 
Q 53.21875 48.921875 51.53125 44.890625 
Q 49.859375 40.875 45.40625 35.40625 
Q 44.1875 33.984375 37.640625 27.21875 
Q 31.109375 20.453125 19.1875 8.296875 
z
" id="DejaVuSans-50"/>
      </defs>
      <g transform="translate(232.773959 399.078438)scale(0.1 -0.1)">
       <use xlink:href="#DejaVuSans-8722"/>
       <use x="83.789062" xlink:href="#DejaVuSans-48"/>
       <use x="147.412109" xlink:href="#DejaVuSans-46"/>
       <use x="179.199219" xlink:href="#DejaVuSans-50"/>
       <use x="242.822266" xlink:href="#DejaVuSans-53"/>
      </g>
     </g>
    </g>
    <g id="xtick_4">
     <g id="line2d_4">
      <g>
       <use style="stroke:#000000;stroke-width:0.8;" x="320.290882" xlink:href="#m2afef0e966" y="384.48"/>
      </g>
     </g>
     <g id="text_4">
      <!-- 0.00 -->
      <g transform="translate(309.158069 399.078438)scale(0.1 -0.1)">
       <use xlink:href="#DejaVuSans-48"/>
       <use x="63.623047" xlink:href="#DejaVuSans-46"/>
       <use x="95.410156" xlink:href="#DejaVuSans-48"/>
       <use x="159.033203" xlink:href="#DejaVuSans-48"/>
      </g>
     </g>
    </g>
    <g id="xtick_5">
     <g id="line2d_5">
      <g>
       <use style="stroke:#000000;stroke-width:0.8;" x="392.485149" xlink:href="#m2afef0e966" y="384.48"/>
      </g>
     </g>
     <g id="text_5">
      <!-- 0.25 -->
      <g transform="translate(381.352336 399.078438)scale(0.1 -0.1)">
       <use xlink:href="#DejaVuSans-48"/>
       <use x="63.623047" xlink:href="#DejaVuSans-46"/>
       <use x="95.410156" xlink:href="#DejaVuSans-50"/>
       <use x="159.033203" xlink:href="#DejaVuSans-53"/>
      </g>
     </g>
    </g>
    <g id="xtick_6">
     <g id="line2d_6">
      <g>
       <use style="stroke:#000000;stroke-width:0.8;" x="464.679415" xlink:href="#m2afef0e966" y="384.48"/>
      </g>
     </g>
     <g id="text_6">
      <!-- 0.50 -->
      <g transform="translate(453.546603 399.078438)scale(0.1 -0.1)">
       <use xlink:href="#DejaVuSans-48"/>
       <use x="63.623047" xlink:href="#DejaVuSans-46"/>
       <use x="95.410156" xlink:href="#DejaVuSans-53"/>
       <use x="159.033203" xlink:href="#DejaVuSans-48"/>
      </g>
     </g>
    </g>
    <g id="xtick_7">
     <g id="line2d_7">
      <g>
       <use style="stroke:#000000;stroke-width:0.8;" x="536.873682" xlink:href="#m2afef0e966" y="384.48"/>
      </g>
     </g>
     <g id="text_7">
      <!-- 0.75 -->
      <g transform="translate(525.740869 399.078438)scale(0.1 -0.1)">
       <use xlink:href="#DejaVuSans-48"/>
       <use x="63.623047" xlink:href="#DejaVuSans-46"/>
       <use x="95.410156" xlink:href="#DejaVuSans-55"/>
       <use x="159.033203" xlink:href="#DejaVuSans-53"/>
      </g>
     </g>
    </g>
    <g id="xtick_8">
     <g id="line2d_8">
      <g>
       <use style="stroke:#000000;stroke-width:0.8;" x="609.067948" xlink:href="#m2afef0e966" y="384.48"/>
      </g>
     </g>
     <g id="text_8">
      <!-- 1.00 -->
      <defs>
       <path d="M 12.40625 8.296875 
L 28.515625 8.296875 
L 28.515625 63.921875 
L 10.984375 60.40625 
L 10.984375 69.390625 
L 28.421875 72.90625 
L 38.28125 72.90625 
L 38.28125 8.296875 
L 54.390625 8.296875 
L 54.390625 0 
L 12.40625 0 
z
" id="DejaVuSans-49"/>
      </defs>
      <g transform="translate(597.935136 399.078438)scale(0.1 -0.1)">
       <use xlink:href="#DejaVuSans-49"/>
       <use x="63.623047" xlink:href="#DejaVuSans-46"/>
       <use x="95.410156" xlink:href="#DejaVuSans-48"/>
       <use x="159.033203" xlink:href="#DejaVuSans-48"/>
      </g>
     </g>
    </g>
    <g id="text_9">
     <!-- Value Distribution of Selected Tensors -->
     <defs>
      <path d="M 28.609375 0 
L 0.78125 72.90625 
L 11.078125 72.90625 
L 34.1875 11.53125 
L 57.328125 72.90625 
L 67.578125 72.90625 
L 39.796875 0 
z
" id="DejaVuSans-86"/>
      <path d="M 34.28125 27.484375 
Q 23.390625 27.484375 19.1875 25 
Q 14.984375 22.515625 14.984375 16.5 
Q 14.984375 11.71875 18.140625 8.90625 
Q 21.296875 6.109375 26.703125 6.109375 
Q 34.1875 6.109375 38.703125 11.40625 
Q 43.21875 16.703125 43.21875 25.484375 
L 43.21875 27.484375 
z
M 52.203125 31.203125 
L 52.203125 0 
L 43.21875 0 
L 43.21875 8.296875 
Q 40.140625 3.328125 35.546875 0.953125 
Q 30.953125 -1.421875 24.3125 -1.421875 
Q 15.921875 -1.421875 10.953125 3.296875 
Q 6 8.015625 6 15.921875 
Q 6 25.140625 12.171875 29.828125 
Q 18.359375 34.515625 30.609375 34.515625 
L 43.21875 34.515625 
L 43.21875 35.40625 
Q 43.21875 41.609375 39.140625 45 
Q 35.0625 48.390625 27.6875 48.390625 
Q 23 48.390625 18.546875 47.265625 
Q 14.109375 46.140625 10.015625 43.890625 
L 10.015625 52.203125 
Q 14.9375 54.109375 19.578125 55.046875 
Q 24.21875 56 28.609375 56 
Q 40.484375 56 46.34375 49.84375 
Q 52.203125 43.703125 52.203125 31.203125 
z
" id="DejaVuSans-97"/>
      <path d="M 9.421875 75.984375 
L 18.40625 75.984375 
L 18.40625 0 
L 9.421875 0 
z
" id="DejaVuSans-108"/>
      <path d="M 8.5 21.578125 
L 8.5 54.6875 
L 17.484375 54.6875 
L 17.484375 21.921875 
Q 17.484375 14.15625 20.5 10.265625 
Q 23.53125 6.390625 29.59375 6.390625 
Q 36.859375 6.390625 41.078125 11.03125 
Q 45.3125 15.671875 45.3125 23.6875 
L 45.3125 54.6875 
L 54.296875 54.6875 
L 54.296875 0 
L 45.3125 0 
L 45.3125 8.40625 
Q 42.046875 3.421875 37.71875 1 
Q 33.40625 -1.421875 27.6875 -1.421875 
Q 18.265625 -1.421875 13.375 4.4375 
Q 8.5 10.296875 8.5 21.578125 
z
M 31.109375 56 
z
" id="DejaVuSans-117"/>
      <path d="M 56.203125 29.59375 
L 56.203125 25.203125 
L 14.890625 25.203125 
Q 15.484375 15.921875 20.484375 11.0625 
Q 25.484375 6.203125 34.421875 6.203125 
Q 39.59375 6.203125 44.453125 7.46875 
Q 49.3125 8.734375 54.109375 11.28125 
L 54.109375 2.78125 
Q 49.265625 0.734375 44.1875 -0.34375 
Q 39.109375 -1.421875 33.890625 -1.421875 
Q 20.796875 -1.421875 13.15625 6.1875 
Q 5.515625 13.8125 5.515625 26.8125 
Q 5.515625 40.234375 12.765625 48.109375 
Q 20.015625 56 32.328125 56 
Q 43.359375 56 49.78125 48.890625 
Q 56.203125 41.796875 56.203125 29.59375 
z
M 47.21875 32.234375 
Q 47.125 39.59375 43.09375 43.984375 
Q 39.0625 48.390625 32.421875 48.390625 
Q 24.90625 48.390625 20.390625 44.140625 
Q 15.875 39.890625 15.1875 32.171875 
z
" id="DejaVuSans-101"/>
      <path id="DejaVuSans-32"/>
      <path d="M 19.671875 64.796875 
L 19.671875 8.109375 
L 31.59375 8.109375 
Q 46.6875 8.109375 53.6875 14.9375 
Q 60.6875 21.78125 60.6875 36.53125 
Q 60.6875 51.171875 53.6875 57.984375 
Q 46.6875 64.796875 31.59375 64.796875 
z
M 9.8125 72.90625 
L 30.078125 72.90625 
Q 51.265625 72.90625 61.171875 64.09375 
Q 71.09375 55.28125 71.09375 36.53125 
Q 71.09375 17.671875 61.125 8.828125 
Q 51.171875 0 30.078125 0 
L 9.8125 0 
z
" id="DejaVuSans-68"/>
      <path d="M 9.421875 54.6875 
L 18.40625 54.6875 
L 18.40625 0 
L 9.421875 0 
z
M 9.421875 75.984375 
L 18.40625 75.984375 
L 18.40625 64.59375 
L 9.421875 64.59375 
z
" id="DejaVuSans-105"/>
      <path d="M 44.28125 53.078125 
L 44.28125 44.578125 
Q 40.484375 46.53125 36.375 47.5 
Q 32.28125 48.484375 27.875 48.484375 
Q 21.1875 48.484375 17.84375 46.4375 
Q 14.5 44.390625 14.5 40.28125 
Q 14.5 37.15625 16.890625 35.375 
Q 19.28125 33.59375 26.515625 31.984375 
L 29.59375 31.296875 
Q 39.15625 29.25 43.1875 25.515625 
Q 47.21875 21.78125 47.21875 15.09375 
Q 47.21875 7.46875 41.1875 3.015625 
Q 35.15625 -1.421875 24.609375 -1.421875 
Q 20.21875 -1.421875 15.453125 -0.5625 
Q 10.6875 0.296875 5.421875 2 
L 5.421875 11.28125 
Q 10.40625 8.6875 15.234375 7.390625 
Q 20.0625 6.109375 24.8125 6.109375 
Q 31.15625 6.109375 34.5625 8.28125 
Q 37.984375 10.453125 37.984375 14.40625 
Q 37.984375 18.0625 35.515625 20.015625 
Q 33.0625 21.96875 24.703125 23.78125 
L 21.578125 24.515625 
Q 13.234375 26.265625 9.515625 29.90625 
Q 5.8125 33.546875 5.8125 39.890625 
Q 5.8125 47.609375 11.28125 51.796875 
Q 16.75 56 26.8125 56 
Q 31.78125 56 36.171875 55.265625 
Q 40.578125 54.546875 44.28125 53.078125 
z
" id="DejaVuSans-115"/>
      <path d="M 18.3125 70.21875 
L 18.3125 54.6875 
L 36.8125 54.6875 
L 36.8125 47.703125 
L 18.3125 47.703125 
L 18.3125 18.015625 
Q 18.3125 11.328125 20.140625 9.421875 
Q 21.96875 7.515625 27.59375 7.515625 
L 36.8125 7.515625 
L 36.8125 0 
L 27.59375 0 
Q 17.1875 0 13.234375 3.875 
Q 9.28125 7.765625 9.28125 18.015625 
L 9.28125 47.703125 
L 2.6875 47.703125 
L 2.6875 54.6875 
L 9.28125 54.6875 
L 9.28125 70.21875 
z
" id="DejaVuSans-116"/>
      <path d="M 41.109375 46.296875 
Q 39.59375 47.171875 37.8125 47.578125 
Q 36.03125 48 33.890625 48 
Q 26.265625 48 22.1875 43.046875 
Q 18.109375 38.09375 18.109375 28.8125 
L 18.109375 0 
L 9.078125 0 
L 9.078125 54.6875 
L 18.109375 54.6875 
L 18.109375 46.1875 
Q 20.953125 51.171875 25.484375 53.578125 
Q 30.03125 56 36.53125 56 
Q 37.453125 56 38.578125 55.875 
Q 39.703125 55.765625 41.0625 55.515625 
z
" id="DejaVuSans-114"/>
      <path d="M 48.6875 27.296875 
Q 48.6875 37.203125 44.609375 42.84375 
Q 40.53125 48.484375 33.40625 48.484375 
Q 26.265625 48.484375 22.1875 42.84375 
Q 18.109375 37.203125 18.109375 27.296875 
Q 18.109375 17.390625 22.1875 11.75 
Q 26.265625 6.109375 33.40625 6.109375 
Q 40.53125 6.109375 44.609375 11.75 
Q 48.6875 17.390625 48.6875 27.296875 
z
M 18.109375 46.390625 
Q 20.953125 51.265625 25.265625 53.625 
Q 29.59375 56 35.59375 56 
Q 45.5625 56 51.78125 48.09375 
Q 58.015625 40.1875 58.015625 27.296875 
Q 58.015625 14.40625 51.78125 6.484375 
Q 45.5625 -1.421875 35.59375 -1.421875 
Q 29.59375 -1.421875 25.265625 0.953125 
Q 20.953125 3.328125 18.109375 8.203125 
L 18.109375 0 
L 9.078125 0 
L 9.078125 75.984375 
L 18.109375 75.984375 
z
" id="DejaVuSans-98"/>
      <path d="M 30.609375 48.390625 
Q 23.390625 48.390625 19.1875 42.75 
Q 14.984375 37.109375 14.984375 27.296875 
Q 14.984375 17.484375 19.15625 11.84375 
Q 23.34375 6.203125 30.609375 6.203125 
Q 37.796875 6.203125 41.984375 11.859375 
Q 46.1875 17.53125 46.1875 27.296875 
Q 46.1875 37.015625 41.984375 42.703125 
Q 37.796875 48.390625 30.609375 48.390625 
z
M 30.609375 56 
Q 42.328125 56 49.015625 48.375 
Q 55.71875 40.765625 55.71875 27.296875 
Q 55.71875 13.875 49.015625 6.21875 
Q 42.328125 -1.421875 30.609375 -1.421875 
Q 18.84375 -1.421875 12.171875 6.21875 
Q 5.515625 13.875 5.515625 27.296875 
Q 5.515625 40.765625 12.171875 48.375 
Q 18.84375 56 30.609375 56 
z
" id="DejaVuSans-111"/>
      <path d="M 54.890625 33.015625 
L 54.890625 0 
L 45.90625 0 
L 45.90625 32.71875 
Q 45.90625 40.484375 42.875 44.328125 
Q 39.84375 48.1875 33.796875 48.1875 
Q 26.515625 48.1875 22.3125 43.546875 
Q 18.109375 38.921875 18.109375 30.90625 
L 18.109375 0 
L 9.078125 0 
L 9.078125 54.6875 
L 18.109375 54.6875 
L 18.109375 46.1875 
Q 21.34375 51.125 25.703125 53.5625 
Q 30.078125 56 35.796875 56 
Q 45.21875 56 50.046875 50.171875 
Q 54.890625 44.34375 54.890625 33.015625 
z
" id="DejaVuSans-110"/>
      <path d="M 37.109375 75.984375 
L 37.109375 68.5 
L 28.515625 68.5 
Q 23.6875 68.5 21.796875 66.546875 
Q 19.921875 64.59375 19.921875 59.515625 
L 19.921875 54.6875 
L 34.71875 54.6875 
L 34.71875 47.703125 
L 19.921875 47.703125 
L 19.921875 0 
L 10.890625 0 
L 10.890625 47.703125 
L 2.296875 47.703125 
L 2.296875 54.6875 
L 10.890625 54.6875 
L 10.890625 58.5 
Q 10.890625 67.625 15.140625 71.796875 
Q 19.390625 75.984375 28.609375 75.984375 
z
" id="DejaVuSans-102"/>
      <path d="M 53.515625 70.515625 
L 53.515625 60.890625 
Q 47.90625 63.578125 42.921875 64.890625 
Q 37.9375 66.21875 33.296875 66.21875 
Q 25.25 66.21875 20.875 63.09375 
Q 16.5 59.96875 16.5 54.203125 
Q 16.5 49.359375 19.40625 46.890625 
Q 22.3125 44.4375 30.421875 42.921875 
L 36.375 41.703125 
Q 47.40625 39.59375 52.65625 34.296875 
Q 57.90625 29 57.90625 20.125 
Q 57.90625 9.515625 50.796875 4.046875 
Q 43.703125 -1.421875 29.984375 -1.421875 
Q 24.8125 -1.421875 18.96875 -0.25 
Q 13.140625 0.921875 6.890625 3.21875 
L 6.890625 13.375 
Q 12.890625 10.015625 18.65625 8.296875 
Q 24.421875 6.59375 29.984375 6.59375 
Q 38.421875 6.59375 43.015625 9.90625 
Q 47.609375 13.234375 47.609375 19.390625 
Q 47.609375 24.75 44.3125 27.78125 
Q 41.015625 30.8125 33.5 32.328125 
L 27.484375 33.5 
Q 16.453125 35.6875 11.515625 40.375 
Q 6.59375 45.0625 6.59375 53.421875 
Q 6.59375 63.09375 13.40625 68.65625 
Q 20.21875 74.21875 32.171875 74.21875 
Q 37.3125 74.21875 42.625 73.28125 
Q 47.953125 72.359375 53.515625 70.515625 
z
" id="DejaVuSans-83"/>
      <path d="M 48.78125 52.59375 
L 48.78125 44.1875 
Q 44.96875 46.296875 41.140625 47.34375 
Q 37.3125 48.390625 33.40625 48.390625 
Q 24.65625 48.390625 19.8125 42.84375 
Q 14.984375 37.3125 14.984375 27.296875 
Q 14.984375 17.28125 19.8125 11.734375 
Q 24.65625 6.203125 33.40625 6.203125 
Q 37.3125 6.203125 41.140625 7.25 
Q 44.96875 8.296875 48.78125 10.40625 
L 48.78125 2.09375 
Q 45.015625 0.34375 40.984375 -0.53125 
Q 36.96875 -1.421875 32.421875 -1.421875 
Q 20.0625 -1.421875 12.78125 6.34375 
Q 5.515625 14.109375 5.515625 27.296875 
Q 5.515625 40.671875 12.859375 48.328125 
Q 20.21875 56 33.015625 56 
Q 37.15625 56 41.109375 55.140625 
Q 45.0625 54.296875 48.78125 52.59375 
z
" id="DejaVuSans-99"/>
      <path d="M 45.40625 46.390625 
L 45.40625 75.984375 
L 54.390625 75.984375 
L 54.390625 0 
L 45.40625 0 
L 45.40625 8.203125 
Q 42.578125 3.328125 38.25 0.953125 
Q 33.9375 -1.421875 27.875 -1.421875 
Q 17.96875 -1.421875 11.734375 6.484375 
Q 5.515625 14.40625 5.515625 27.296875 
Q 5.515625 40.1875 11.734375 48.09375 
Q 17.96875 56 27.875 56 
Q 33.9375 56 38.25 53.625 
Q 42.578125 51.265625 45.40625 46.390625 
z
M 14.796875 27.296875 
Q 14.796875 17.390625 18.875 11.75 
Q 22.953125 6.109375 30.078125 6.109375 
Q 37.203125 6.109375 41.296875 11.75 
Q 45.40625 17.390625 45.40625 27.296875 
Q 45.40625 37.203125 41.296875 42.84375 
Q 37.203125 48.484375 30.078125 48.484375 
Q 22.953125 48.484375 18.875 42.84375 
Q 14.796875 37.203125 14.796875 27.296875 
z
" id="DejaVuSans-100"/>
      <path d="M -0.296875 72.90625 
L 61.375 72.90625 
L 61.375 64.59375 
L 35.5 64.59375 
L 35.5 0 
L 25.59375 0 
L 25.59375 64.59375 
L -0.296875 64.59375 
z
" id="DejaVuSans-84"/>
     </defs>
     <g transform="translate(273.255469 412.756563)scale(0.1 -0.1)">
      <use xlink:href="#DejaVuSans-86"/>
      <use x="68.298828" xlink:href="#DejaVuSans-97"/>
      <use x="129.578125" xlink:href="#DejaVuSans-108"/>
      <use x="157.361328" xlink:href="#DejaVuSans-117"/>
      <use x="220.740234" xlink:href="#DejaVuSans-101"/>
      <use x="282.263672" xlink:href="#DejaVuSans-32"/>
      <use x="314.050781" xlink:href="#DejaVuSans-68"/>
      <use x="391.052734" xlink:href="#DejaVuSans-105"/>
      <use x="418.835938" xlink:href="#DejaVuSans-115"/>
      <use x="470.935547" xlink:href="#DejaVuSans-116"/>
      <use x="510.144531" xlink:href="#DejaVuSans-114"/>
      <use x="551.257812" xlink:href="#DejaVuSans-105"/>
      <use x="579.041016" xlink:href="#DejaVuSans-98"/>
      <use x="642.517578" xlink:href="#DejaVuSans-117"/>
      <use x="705.896484" xlink:href="#DejaVuSans-116"/>
      <use x="745.105469" xlink:href="#DejaVuSans-105"/>
      <use x="772.888672" xlink:href="#DejaVuSans-111"/>
      <use x="834.070312" xlink:href="#DejaVuSans-110"/>
      <use x="897.449219" xlink:href="#DejaVuSans-32"/>
      <use x="929.236328" xlink:href="#DejaVuSans-111"/>
      <use x="990.417969" xlink:href="#DejaVuSans-102"/>
      <use x="1025.623047" xlink:href="#DejaVuSans-32"/>
      <use x="1057.410156" xlink:href="#DejaVuSans-83"/>
      <use x="1120.886719" xlink:href="#DejaVuSans-101"/>
      <use x="1182.410156" xlink:href="#DejaVuSans-108"/>
      <use x="1210.193359" xlink:href="#DejaVuSans-101"/>
      <use x="1271.716797" xlink:href="#DejaVuSans-99"/>
      <use x="1326.697266" xlink:href="#DejaVuSans-116"/>
      <use x="1365.90625" xlink:href="#DejaVuSans-101"/>
      <use x="1427.429688" xlink:href="#DejaVuSans-100"/>
      <use x="1490.90625" xlink:href="#DejaVuSans-32"/>
      <use x="1522.693359" xlink:href="#DejaVuSans-84"/>
      <use x="1583.511719" xlink:href="#DejaVuSans-101"/>
      <use x="1645.035156" xlink:href="#DejaVuSans-110"/>
      <use x="1708.414062" xlink:href="#DejaVuSans-115"/>
      <use x="1760.513672" xlink:href="#DejaVuSans-111"/>
      <use x="1821.695312" xlink:href="#DejaVuSans-114"/>
      <use x="1862.808594" xlink:href="#DejaVuSans-115"/>
     </g>
    </g>
   </g>
   <g id="matplotlib.axis_2">
    <g id="ytick_1">
     <g id="line2d_9">
      <defs>
       <path d="M 0 0 
L -3.5 0 
" id="m5c47e2ab25" style="stroke:#000000;stroke-width:0.8;"/>
      </defs>
      <g>
       <use style="stroke:#000000;stroke-width:0.8;" x="90" xlink:href="#m5c47e2ab25" y="384.48"/>
      </g>
     </g>
     <g id="text_10">
      <!-- 0 -->
      <g transform="translate(76.6375 388.279219)scale(0.1 -0.1)">
       <use xlink:href="#DejaVuSans-48"/>
      </g>
     </g>
    </g>
    <g id="ytick_2">
     <g id="line2d_10">
      <g>
       <use style="stroke:#000000;stroke-width:0.8;" x="90" xlink:href="#m5c47e2ab25" y="332.898554"/>
      </g>
     </g>
     <g id="text_11">
      <!-- 2 -->
      <g transform="translate(76.6375 336.697773)scale(0.1 -0.1)">
       <use xlink:href="#DejaVuSans-50"/>
      </g>
     </g>
    </g>
    <g id="ytick_3">
     <g id="line2d_11">
      <g>
       <use style="stroke:#000000;stroke-width:0.8;" x="90" xlink:href="#m5c47e2ab25" y="281.317109"/>
      </g>
     </g>
     <g id="text_12">
      <!-- 4 -->
      <defs>
       <path d="M 37.796875 64.3125 
L 12.890625 25.390625 
L 37.796875 25.390625 
z
M 35.203125 72.90625 
L 47.609375 72.90625 
L 47.609375 25.390625 
L 58.015625 25.390625 
L 58.015625 17.1875 
L 47.609375 17.1875 
L 47.609375 0 
L 37.796875 0 
L 37.796875 17.1875 
L 4.890625 17.1875 
L 4.890625 26.703125 
z
" id="DejaVuSans-52"/>
      </defs>
      <g transform="translate(76.6375 285.116327)scale(0.1 -0.1)">
       <use xlink:href="#DejaVuSans-52"/>
      </g>
     </g>
    </g>
    <g id="ytick_4">
     <g id="line2d_12">
      <g>
       <use style="stroke:#000000;stroke-width:0.8;" x="90" xlink:href="#m5c47e2ab25" y="229.735663"/>
      </g>
     </g>
     <g id="text_13">
      <!-- 6 -->
      <defs>
       <path d="M 33.015625 40.375 
Q 26.375 40.375 22.484375 35.828125 
Q 18.609375 31.296875 18.609375 23.390625 
Q 18.609375 15.53125 22.484375 10.953125 
Q 26.375 6.390625 33.015625 6.390625 
Q 39.65625 6.390625 43.53125 10.953125 
Q 47.40625 15.53125 47.40625 23.390625 
Q 47.40625 31.296875 43.53125 35.828125 
Q 39.65625 40.375 33.015625 40.375 
z
M 52.59375 71.296875 
L 52.59375 62.3125 
Q 48.875 64.0625 45.09375 64.984375 
Q 41.3125 65.921875 37.59375 65.921875 
Q 27.828125 65.921875 22.671875 59.328125 
Q 17.53125 52.734375 16.796875 39.40625 
Q 19.671875 43.65625 24.015625 45.921875 
Q 28.375 48.1875 33.59375 48.1875 
Q 44.578125 48.1875 50.953125 41.515625 
Q 57.328125 34.859375 57.328125 23.390625 
Q 57.328125 12.15625 50.6875 5.359375 
Q 44.046875 -1.421875 33.015625 -1.421875 
Q 20.359375 -1.421875 13.671875 8.265625 
Q 6.984375 17.96875 6.984375 36.375 
Q 6.984375 53.65625 15.1875 63.9375 
Q 23.390625 74.21875 37.203125 74.21875 
Q 40.921875 74.21875 44.703125 73.484375 
Q 48.484375 72.75 52.59375 71.296875 
z
" id="DejaVuSans-54"/>
      </defs>
      <g transform="translate(76.6375 233.534882)scale(0.1 -0.1)">
       <use xlink:href="#DejaVuSans-54"/>
      </g>
     </g>
    </g>
    <g id="ytick_5">
     <g id="line2d_13">
      <g>
       <use style="stroke:#000000;stroke-width:0.8;" x="90" xlink:href="#m5c47e2ab25" y="178.154217"/>
      </g>
     </g>
     <g id="text_14">
      <!-- 8 -->
      <defs>
       <path d="M 31.78125 34.625 
Q 24.75 34.625 20.71875 30.859375 
Q 16.703125 27.09375 16.703125 20.515625 
Q 16.703125 13.921875 20.71875 10.15625 
Q 24.75 6.390625 31.78125 6.390625 
Q 38.8125 6.390625 42.859375 10.171875 
Q 46.921875 13.96875 46.921875 20.515625 
Q 46.921875 27.09375 42.890625 30.859375 
Q 38.875 34.625 31.78125 34.625 
z
M 21.921875 38.8125 
Q 15.578125 40.375 12.03125 44.71875 
Q 8.5 49.078125 8.5 55.328125 
Q 8.5 64.0625 14.71875 69.140625 
Q 20.953125 74.21875 31.78125 74.21875 
Q 42.671875 74.21875 48.875 69.140625 
Q 55.078125 64.0625 55.078125 55.328125 
Q 55.078125 49.078125 51.53125 44.71875 
Q 48 40.375 41.703125 38.8125 
Q 48.828125 37.15625 52.796875 32.3125 
Q 56.78125 27.484375 56.78125 20.515625 
Q 56.78125 9.90625 50.3125 4.234375 
Q 43.84375 -1.421875 31.78125 -1.421875 
Q 19.734375 -1.421875 13.25 4.234375 
Q 6.78125 9.90625 6.78125 20.515625 
Q 6.78125 27.484375 10.78125 32.3125 
Q 14.796875 37.15625 21.921875 38.8125 
z
M 18.3125 54.390625 
Q 18.3125 48.734375 21.84375 45.5625 
Q 25.390625 42.390625 31.78125 42.390625 
Q 38.140625 42.390625 41.71875 45.5625 
Q 45.3125 48.734375 45.3125 54.390625 
Q 45.3125 60.0625 41.71875 63.234375 
Q 38.140625 66.40625 31.78125 66.40625 
Q 25.390625 66.40625 21.84375 63.234375 
Q 18.3125 60.0625 18.3125 54.390625 
z
" id="DejaVuSans-56"/>
      </defs>
      <g transform="translate(76.6375 181.953436)scale(0.1 -0.1)">
       <use xlink:href="#DejaVuSans-56"/>
      </g>
     </g>
    </g>
    <g id="ytick_6">
     <g id="line2d_14">
      <g>
       <use style="stroke:#000000;stroke-width:0.8;" x="90" xlink:href="#m5c47e2ab25" y="126.572771"/>
      </g>
     </g>
     <g id="text_15">
      <!-- 10 -->
      <g transform="translate(70.275 130.37199)scale(0.1 -0.1)">
       <use xlink:href="#DejaVuSans-49"/>
       <use x="63.623047" xlink:href="#DejaVuSans-48"/>
      </g>
     </g>
    </g>
    <g id="ytick_7">
     <g id="line2d_15">
      <g>
       <use style="stroke:#000000;stroke-width:0.8;" x="90" xlink:href="#m5c47e2ab25" y="74.991326"/>
      </g>
     </g>
     <g id="text_16">
      <!-- 12 -->
      <g transform="translate(70.275 78.790544)scale(0.1 -0.1)">
       <use xlink:href="#DejaVuSans-49"/>
       <use x="63.623047" xlink:href="#DejaVuSans-50"/>
      </g>
     </g>
    </g>
    <g id="text_17">
     <!-- Density -->
     <defs>
      <path d="M 32.171875 -5.078125 
Q 28.375 -14.84375 24.75 -17.8125 
Q 21.140625 -20.796875 15.09375 -20.796875 
L 7.90625 -20.796875 
L 7.90625 -13.28125 
L 13.1875 -13.28125 
Q 16.890625 -13.28125 18.9375 -11.515625 
Q 21 -9.765625 23.484375 -3.21875 
L 25.09375 0.875 
L 2.984375 54.6875 
L 12.5 54.6875 
L 29.59375 11.921875 
L 46.6875 54.6875 
L 56.203125 54.6875 
z
" id="DejaVuSans-121"/>
     </defs>
     <g transform="translate(64.195312 237.168594)rotate(-90)scale(0.1 -0.1)">
      <use xlink:href="#DejaVuSans-68"/>
      <use x="77.001953" xlink:href="#DejaVuSans-101"/>
      <use x="138.525391" xlink:href="#DejaVuSans-110"/>
      <use x="201.904297" xlink:href="#DejaVuSans-115"/>
      <use x="254.003906" xlink:href="#DejaVuSans-105"/>
      <use x="281.787109" xlink:href="#DejaVuSans-116"/>
      <use x="320.996094" xlink:href="#DejaVuSans-121"/>
     </g>
    </g>
   </g>
   <g id="line2d_16">
    <path clip-path="url(#p3e61eb2db4)" d="M 128.466791 384.479752 
L 132.867888 384.464146 
L 137.268986 384.469993 
L 141.670083 384.45229 
L 146.07118 384.457197 
L 150.472277 384.479543 
L 154.873375 384.48 
L 159.274472 384.479964 
L 163.675569 384.467744 
L 168.076666 384.43991 
L 172.477764 384.43719 
L 176.878861 384.443758 
L 181.279958 384.434228 
L 185.681055 384.388461 
L 190.082152 384.425595 
L 194.48325 384.391869 
L 198.884347 384.327192 
L 203.285444 384.336396 
L 207.686541 384.307538 
L 212.087639 384.186674 
L 216.488736 384.032558 
L 220.889833 384.170406 
L 225.29093 384.09618 
L 229.692028 383.915563 
L 234.093125 383.791804 
L 238.494222 383.763954 
L 242.895319 383.721324 
L 247.296417 383.589633 
L 251.697514 383.147076 
L 256.098611 382.631128 
L 260.499708 381.531783 
L 264.900806 381.454513 
L 269.301903 380.224276 
L 273.703 378.20966 
L 278.104097 375.82841 
L 282.505195 371.997512 
L 286.906292 366.036141 
L 291.307389 358.13345 
L 295.708486 344.111849 
L 300.109584 322.469139 
L 304.510681 290.699975 
L 308.911778 249.991976 
L 313.312875 198.703925 
L 317.713973 158.367202 
L 322.11507 155.126949 
L 326.516167 195.015016 
L 330.917264 247.204842 
L 335.318362 289.725588 
L 339.719459 322.144493 
L 344.120556 341.504694 
L 348.521653 356.731796 
L 352.922751 365.267427 
L 357.323848 371.032477 
L 361.724945 374.687285 
L 366.126042 376.936651 
L 370.52714 378.941398 
L 374.928237 380.348116 
L 379.329334 381.135072 
L 383.730431 382.018081 
L 388.131529 382.628801 
L 392.532626 383.034547 
L 396.933723 383.490334 
L 401.33482 383.645709 
L 405.735918 383.684888 
L 410.137015 383.823553 
L 414.538112 383.947698 
L 418.939209 384.142519 
L 423.340307 384.234508 
L 427.741404 384.258669 
L 432.142501 384.338587 
L 436.543598 384.310461 
L 440.944696 384.379885 
L 445.345793 384.38003 
L 449.74689 384.426592 
L 454.147987 384.471293 
L 458.549085 384.457471 
L 462.950182 384.451945 
L 467.351279 384.437539 
L 471.752376 384.47309 
L 476.153473 384.476669 
L 480.554571 384.423797 
L 484.955668 384.461482 
L 489.356765 384.47351 
L 493.757862 384.46115 
L 498.15896 384.479497 
L 502.560057 384.479471 
L 506.961154 384.46095 
L 511.362251 384.473811 
L 515.763349 384.473987 
L 520.164446 384.460758 
L 524.565543 384.479445 
L 528.96664 384.48 
L 533.367738 384.48 
L 537.768835 384.48 
L 542.169932 384.48 
L 546.571029 384.48 
L 550.972127 384.47979 
L 555.373224 384.456894 
L 559.774321 384.45331 
L 564.175418 384.479676 
" style="fill:none;stroke:#1f77b4;stroke-linecap:square;stroke-width:2;"/>
   </g>
   <g id="line2d_17">
    <path clip-path="url(#p3e61eb2db4)" d="M 143.781309 384.479821 
L 147.312759 384.46565 
L 150.844209 384.477942 
L 154.375659 384.479999 
L 157.907109 384.48 
L 161.438559 384.47832 
L 164.970008 384.465025 
L 168.501458 384.479761 
L 172.032908 384.478743 
L 175.564358 384.460233 
L 179.095808 384.451048 
L 182.627258 384.479526 
L 186.158708 384.47957 
L 189.690158 384.453419 
L 193.221608 384.458407 
L 196.753058 384.472405 
L 200.284508 384.407924 
L 203.815958 384.392538 
L 207.347407 384.380238 
L 210.878857 384.440923 
L 214.410307 384.424999 
L 217.941757 384.407461 
L 221.473207 384.389751 
L 225.004657 384.227543 
L 228.536107 384.29032 
L 232.067557 384.241488 
L 235.599007 384.2203 
L 239.130457 384.151915 
L 242.661907 384.133148 
L 246.193356 384.084494 
L 249.724806 383.766864 
L 253.256256 383.734111 
L 256.787706 383.506586 
L 260.319156 383.102758 
L 263.850606 382.936868 
L 267.382056 382.362101 
L 270.913506 381.806949 
L 274.444956 380.685922 
L 277.976406 379.481614 
L 281.507856 377.370878 
L 285.039306 374.590612 
L 288.570755 370.529503 
L 292.102205 364.084797 
L 295.633655 355.422889 
L 299.165105 342.758757 
L 302.696555 322.409413 
L 306.228005 289.729728 
L 309.759455 241.869326 
L 313.290905 174.195306 
L 316.822355 103.398621 
L 320.353805 77.253502 
L 323.885255 117.239591 
L 327.416704 191.47967 
L 330.948154 254.78401 
L 334.479604 300.311282 
L 338.011054 327.381067 
L 341.542504 346.951236 
L 345.073954 358.24717 
L 348.605404 366.419164 
L 352.136854 371.175097 
L 355.668304 375.182522 
L 359.199754 377.717988 
L 362.731204 379.430085 
L 366.262653 380.573234 
L 369.794103 381.376651 
L 373.325553 382.406263 
L 376.857003 382.737955 
L 380.388453 383.008976 
L 383.919903 383.12996 
L 387.451353 383.397478 
L 390.982803 383.571431 
L 394.514253 383.874004 
L 398.045703 384.050231 
L 401.577153 384.124747 
L 405.108603 384.12871 
L 408.640052 384.147231 
L 412.171502 384.224565 
L 415.702952 384.270586 
L 419.234402 384.300928 
L 422.765852 384.299232 
L 426.297302 384.326899 
L 429.828752 384.39354 
L 433.360202 384.375096 
L 436.891652 384.386666 
L 440.423102 384.404797 
L 443.954552 384.442197 
L 447.486001 384.417292 
L 451.017451 384.396415 
L 454.548901 384.44581 
L 458.080351 384.460548 
L 461.611801 384.472974 
L 465.143251 384.435882 
L 468.674701 384.444127 
L 472.206151 384.473345 
L 475.737601 384.468807 
L 479.269051 384.466696 
L 482.800501 384.478922 
L 486.33195 384.446143 
L 489.8634 384.463653 
L 493.39485 384.47982 
" style="fill:none;stroke:#ff7f0e;stroke-linecap:square;stroke-width:2;"/>
   </g>
   <g id="line2d_18">
    <path clip-path="url(#p3e61eb2db4)" d="M 115.363636 384.479876 
L 119.075406 384.471036 
L 122.787175 384.479999 
L 126.498945 384.48 
L 130.210714 384.48 
L 133.922483 384.48 
L 137.634253 384.48 
L 141.346022 384.48 
L 145.057792 384.48 
L 148.769561 384.48 
L 152.481331 384.48 
L 156.1931 384.48 
L 159.904869 384.48 
L 163.616639 384.48 
L 167.328408 384.48 
L 171.040178 384.48 
L 174.751947 384.479999 
L 178.463717 384.47071 
L 182.175486 384.476838 
L 185.887255 384.478113 
L 189.599025 384.453441 
L 193.310794 384.45222 
L 197.022564 384.447769 
L 200.734333 384.473351 
L 204.446103 384.463187 
L 208.157872 384.466487 
L 211.869641 384.448236 
L 215.581411 384.43408 
L 219.29318 384.424976 
L 223.00495 384.442949 
L 226.716719 384.406682 
L 230.428489 384.383819 
L 234.140258 384.355646 
L 237.852027 384.311792 
L 241.563797 384.305495 
L 245.275566 384.321297 
L 248.987336 384.234798 
L 252.699105 384.248533 
L 256.410875 384.002074 
L 260.122644 383.943832 
L 263.834413 383.687674 
L 267.546183 383.373157 
L 271.257952 383.168572 
L 274.969722 382.308665 
L 278.681491 381.391333 
L 282.39326 380.147845 
L 286.10503 378.297523 
L 289.816799 374.46643 
L 293.528569 367.487618 
L 297.240338 357.506274 
L 300.952108 337.874979 
L 304.663877 307.788701 
L 308.375646 257.360154 
L 312.087416 184.023061 
L 315.799185 110.631709 
L 319.510955 67.68 
L 323.222724 89.949446 
L 326.934494 162.073704 
L 330.646263 237.72997 
L 334.358032 294.590441 
L 338.069802 332.223915 
L 341.781571 353.458338 
L 345.493341 366.216685 
L 349.20511 373.570772 
L 352.91688 377.254941 
L 356.628649 379.871702 
L 360.340418 381.453698 
L 364.052188 382.380309 
L 367.763957 382.818118 
L 371.475727 383.470382 
L 375.187496 383.603544 
L 378.899266 383.752074 
L 382.611035 384.116282 
L 386.322804 384.101228 
L 390.034574 384.20965 
L 393.746343 384.193704 
L 397.458113 384.243417 
L 401.169882 384.313786 
L 404.881652 384.340349 
L 408.593421 384.379846 
L 412.30519 384.384906 
L 416.01696 384.393156 
L 419.728729 384.451326 
L 423.440499 384.420554 
L 427.152268 384.441207 
L 430.864037 384.43714 
L 434.575807 384.436698 
L 438.287576 384.446128 
L 441.999346 384.461334 
L 445.711115 384.460264 
L 449.422885 384.4753 
L 453.134654 384.472464 
L 456.846423 384.463337 
L 460.558193 384.47997 
L 464.269962 384.479999 
L 467.981732 384.471638 
L 471.693501 384.479809 
L 475.405271 384.46895 
L 479.11704 384.460173 
L 482.828809 384.47987 
" style="fill:none;stroke:#2ca02c;stroke-linecap:square;stroke-width:2;"/>
   </g>
   <g id="line2d_19">
    <path clip-path="url(#p3e61eb2db4)" d="M 151.047508 384.479875 
L 154.371638 384.469243 
L 157.695768 384.479984 
L 161.019898 384.48 
L 164.344028 384.48 
L 167.668159 384.48 
L 170.992289 384.48 
L 174.316419 384.48 
L 177.640549 384.478908 
L 180.964679 384.474162 
L 184.288809 384.47836 
L 187.61294 384.464344 
L 190.93707 384.460584 
L 194.2612 384.479861 
L 197.58533 384.479967 
L 200.90946 384.465858 
L 204.23359 384.45479 
L 207.557721 384.460163 
L 210.881851 384.439476 
L 214.205981 384.472242 
L 217.530111 384.446127 
L 220.854241 384.410279 
L 224.178371 384.406487 
L 227.502501 384.456208 
L 230.826632 384.431518 
L 234.150762 384.430788 
L 237.474892 384.443208 
L 240.799022 384.406693 
L 244.123152 384.377356 
L 247.447282 384.3548 
L 250.771413 384.299658 
L 254.095543 384.241819 
L 257.419673 384.238839 
L 260.743803 384.055611 
L 264.067933 383.997074 
L 267.392063 383.737178 
L 270.716194 383.614451 
L 274.040324 383.094441 
L 277.364454 382.514275 
L 280.688584 381.539448 
L 284.012714 380.177861 
L 287.336844 377.321217 
L 290.660975 372.990842 
L 293.985105 366.266382 
L 297.309235 354.869676 
L 300.633365 335.653449 
L 303.957495 306.389521 
L 307.281625 263.450728 
L 310.605756 207.781992 
L 313.929886 147.887771 
L 317.254016 101.90786 
L 320.578146 87.57794 
L 323.902276 116.035107 
L 327.226406 170.729315 
L 330.550536 232.519002 
L 333.874667 281.211223 
L 337.198797 319.572655 
L 340.522927 343.02876 
L 343.847057 358.869523 
L 347.171187 368.509142 
L 350.495317 374.389173 
L 353.819448 377.667771 
L 357.143578 380.488639 
L 360.467708 381.496095 
L 363.791838 382.458009 
L 367.115968 382.78245 
L 370.440098 383.268314 
L 373.764229 383.587828 
L 377.088359 383.748145 
L 380.412489 383.941861 
L 383.736619 384.092598 
L 387.060749 384.163754 
L 390.384879 384.271468 
L 393.70901 384.262555 
L 397.03314 384.349765 
L 400.35727 384.342399 
L 403.6814 384.38204 
L 407.00553 384.432818 
L 410.32966 384.365826 
L 413.653791 384.435754 
L 416.977921 384.463086 
L 420.302051 384.444123 
L 423.626181 384.438252 
L 426.950311 384.454094 
L 430.274441 384.462525 
L 433.598571 384.476237 
L 436.922702 384.459815 
L 440.246832 384.479185 
L 443.570962 384.471535 
L 446.895092 384.469498 
L 450.219222 384.479846 
L 453.543352 384.48 
L 456.867483 384.48 
L 460.191613 384.48 
L 463.515743 384.477165 
L 466.839873 384.477094 
L 470.164003 384.48 
L 473.488133 384.479984 
L 476.812264 384.469243 
L 480.136394 384.479875 
" style="fill:none;stroke:#d62728;stroke-linecap:square;stroke-width:2;"/>
   </g>
   <g id="line2d_20">
    <path clip-path="url(#p3e61eb2db4)" d="M 171.537272 384.479878 
L 175.364933 384.471477 
L 179.192594 384.47022 
L 183.020255 384.479904 
L 186.847916 384.46386 
L 190.675577 384.479043 
L 194.503238 384.475086 
L 198.3309 384.473464 
L 202.158561 384.465639 
L 205.986222 384.47104 
L 209.813883 384.473655 
L 213.641544 384.469221 
L 217.469205 384.463686 
L 221.296866 384.461598 
L 225.124527 384.452242 
L 228.952188 384.455219 
L 232.779849 384.450746 
L 236.60751 384.442677 
L 240.435171 384.428377 
L 244.262832 384.365234 
L 248.090494 384.396243 
L 251.918155 384.365045 
L 255.745816 384.316768 
L 259.573477 384.228866 
L 263.401138 384.109802 
L 267.228799 383.887488 
L 271.05646 383.495548 
L 274.884121 382.859941 
L 278.711782 382.317577 
L 282.539443 380.747472 
L 286.367104 377.567771 
L 290.194765 372.487846 
L 294.022427 363.106561 
L 297.850088 347.608425 
L 301.677749 321.139447 
L 305.50541 281.089034 
L 309.333071 225.893286 
L 313.160732 166.69144 
L 316.988393 117.027119 
L 320.816054 105.486083 
L 324.643715 139.639162 
L 328.471376 195.998197 
L 332.299037 257.116809 
L 336.126698 302.539334 
L 339.95436 335.190383 
L 343.782021 355.045368 
L 347.609682 367.196741 
L 351.437343 374.297384 
L 355.265004 378.390463 
L 359.092665 380.451779 
L 362.920326 381.881484 
L 366.747987 383.064376 
L 370.575648 383.382713 
L 374.403309 383.82839 
L 378.23097 383.843441 
L 382.058631 384.162448 
L 385.886293 384.280087 
L 389.713954 384.271957 
L 393.541615 384.322566 
L 397.369276 384.354622 
L 401.196937 384.404192 
L 405.024598 384.417199 
L 408.852259 384.426301 
L 412.67992 384.429173 
L 416.507581 384.444289 
L 420.335242 384.440045 
L 424.162903 384.446947 
L 427.990564 384.462433 
L 431.818225 384.463632 
L 435.645887 384.474708 
L 439.473548 384.48 
L 443.301209 384.48 
L 447.12887 384.479942 
L 450.956531 384.470178 
L 454.784192 384.47232 
L 458.611853 384.479819 
L 462.439514 384.48 
L 466.267175 384.48 
L 470.094836 384.48 
L 473.922497 384.479999 
L 477.750158 384.471433 
L 481.57782 384.479602 
L 485.405481 384.473352 
L 489.233142 384.48 
L 493.060803 384.48 
L 496.888464 384.48 
L 500.716125 384.48 
L 504.543786 384.48 
L 508.371447 384.479984 
L 512.199108 384.469053 
L 516.026769 384.479992 
L 519.85443 384.48 
L 523.682091 384.48 
L 527.509753 384.48 
L 531.337414 384.48 
L 535.165075 384.48 
L 538.992736 384.48 
L 542.820397 384.479999 
L 546.648058 384.471479 
L 550.475719 384.479878 
" style="fill:none;stroke:#9467bd;stroke-linecap:square;stroke-width:2;"/>
   </g>
   <g id="line2d_21">
    <path clip-path="url(#p3e61eb2db4)" d="M 162.572722 384.479882 
L 167.219829 384.475758 
L 171.866937 384.48 
L 176.514044 384.48 
L 181.161152 384.48 
L 185.808259 384.48 
L 190.455367 384.479954 
L 195.102474 384.463762 
L 199.749582 384.474926 
L 204.396689 384.472355 
L 209.043797 384.48 
L 213.690904 384.468387 
L 218.338012 384.465538 
L 222.985119 384.470156 
L 227.632227 384.446638 
L 232.279334 384.456408 
L 236.926442 384.440724 
L 241.573549 384.447353 
L 246.220657 384.39843 
L 250.867764 384.371023 
L 255.514872 384.336156 
L 260.161979 384.120075 
L 264.809087 384.034104 
L 269.456194 383.788626 
L 274.103302 383.057753 
L 278.750409 381.780504 
L 283.397517 379.140698 
L 288.044624 374.244162 
L 292.691732 364.174088 
L 297.338839 344.866741 
L 301.985947 312.452386 
L 306.633054 265.237215 
L 311.280162 200.927266 
L 315.927269 141.332665 
L 320.574377 121.814136 
L 325.221484 151.824494 
L 329.868592 219.355585 
L 334.515699 278.231465 
L 339.162807 322.747115 
L 343.809914 349.36024 
L 348.457022 366.208327 
L 353.104129 374.73941 
L 357.751237 379.471501 
L 362.398344 381.715439 
L 367.045452 383.086132 
L 371.692559 383.684709 
L 376.339667 383.985166 
L 380.986774 384.179778 
L 385.633882 384.242386 
L 390.280989 384.304316 
L 394.928096 384.36713 
L 399.575204 384.435192 
L 404.222311 384.438677 
L 408.869419 384.42302 
L 413.516526 384.431594 
L 418.163634 384.455613 
L 422.810741 384.470095 
L 427.457849 384.47988 
L 432.104956 384.458085 
L 436.752064 384.445483 
L 441.399171 384.469953 
L 446.046279 384.479996 
L 450.693386 384.48 
L 455.340494 384.48 
L 459.987601 384.477327 
L 464.634709 384.479718 
L 469.281816 384.469864 
L 473.928924 384.479997 
L 478.576031 384.48 
L 483.223139 384.48 
L 487.870246 384.479208 
L 492.517354 384.47877 
L 497.164461 384.48 
L 501.811569 384.48 
L 506.458676 384.48 
L 511.105784 384.479999 
L 515.752891 384.469418 
L 520.399999 384.479999 
L 525.047106 384.48 
L 529.694214 384.48 
L 534.341321 384.48 
L 538.988429 384.48 
L 543.635536 384.48 
L 548.282644 384.48 
L 552.929751 384.48 
L 557.576859 384.48 
L 562.223966 384.48 
L 566.871074 384.48 
L 571.518181 384.48 
L 576.165289 384.48 
L 580.812396 384.48 
L 585.459504 384.48 
L 590.106611 384.48 
L 594.753719 384.48 
L 599.400826 384.48 
L 604.047934 384.48 
L 608.695041 384.48 
L 613.342149 384.48 
L 617.989256 384.475758 
L 622.636364 384.479882 
" style="fill:none;stroke:#8c564b;stroke-linecap:square;stroke-width:2;"/>
   </g>
   <g id="line2d_22">
    <path clip-path="url(#p3e61eb2db4)" d="M 129.011177 384.479889 
L 132.464138 384.469984 
L 135.9171 384.479921 
L 139.370061 384.48 
L 142.823022 384.48 
L 146.275983 384.479999 
L 149.728944 384.475304 
L 153.181905 384.478099 
L 156.634866 384.48 
L 160.087827 384.48 
L 163.540788 384.48 
L 166.993749 384.479948 
L 170.44671 384.470149 
L 173.899671 384.479826 
L 177.352632 384.472064 
L 180.805593 384.477588 
L 184.258554 384.475146 
L 187.711515 384.475123 
L 191.164476 384.478204 
L 194.617437 384.48 
L 198.070398 384.479999 
L 201.523359 384.474368 
L 204.97632 384.470856 
L 208.429281 384.479994 
L 211.882242 384.477228 
L 215.335203 384.476483 
L 218.788164 384.458006 
L 222.241125 384.477082 
L 225.694086 384.456877 
L 229.147047 384.477593 
L 232.600008 384.463004 
L 236.052969 384.453078 
L 239.50593 384.431407 
L 242.958891 384.425452 
L 246.411852 384.371884 
L 249.864813 384.33514 
L 253.317774 384.393374 
L 256.770735 384.317083 
L 260.223696 384.201466 
L 263.676657 384.094922 
L 267.129618 383.828871 
L 270.582579 383.441997 
L 274.03554 382.950061 
L 277.488502 381.862886 
L 280.941463 379.698185 
L 284.394424 376.396614 
L 287.847385 370.8168 
L 291.300346 361.723634 
L 294.753307 350.359156 
L 298.206268 331.361681 
L 301.659229 305.50893 
L 305.11219 275.416417 
L 308.565151 236.442436 
L 312.018112 199.141817 
L 315.471073 164.536217 
L 318.924034 146.775441 
L 322.376995 149.951201 
L 325.829956 174.793372 
L 329.282917 210.529075 
L 332.735878 251.615834 
L 336.188839 287.656719 
L 339.6418 317.757851 
L 343.094761 340.103127 
L 346.547722 355.757403 
L 350.000683 366.00582 
L 353.453644 373.343375 
L 356.906605 377.880262 
L 360.359566 380.273097 
L 363.812527 381.900538 
L 367.265488 383.024175 
L 370.718449 383.530131 
L 374.17141 383.846849 
L 377.624371 384.05236 
L 381.077332 384.295925 
L 384.530293 384.250221 
L 387.983254 384.376173 
L 391.436215 384.427133 
L 394.889176 384.414363 
L 398.342137 384.416294 
L 401.795098 384.403836 
L 405.248059 384.437693 
L 408.70102 384.47668 
L 412.153981 384.455309 
L 415.606943 384.472779 
L 419.059904 384.466376 
L 422.512865 384.476185 
L 425.965826 384.48 
L 429.418787 384.479803 
L 432.871748 384.467566 
L 436.324709 384.476141 
L 439.77767 384.458276 
L 443.230631 384.476334 
L 446.683592 384.472203 
L 450.136553 384.47936 
L 453.589514 384.48 
L 457.042475 384.48 
L 460.495436 384.48 
L 463.948397 384.479921 
L 467.401358 384.469984 
L 470.854319 384.479889 
" style="fill:none;stroke:#e377c2;stroke-linecap:square;stroke-width:2;"/>
   </g>
   <g id="line2d_23">
    <path clip-path="url(#p3e61eb2db4)" d="M 147.374508 384.479927 
L 150.912885 384.476458 
L 154.451263 384.48 
L 157.98964 384.479146 
L 161.528017 384.479262 
L 165.066394 384.48 
L 168.604771 384.48 
L 172.143149 384.48 
L 175.681526 384.48 
L 179.219903 384.479956 
L 182.75828 384.475802 
L 186.296658 384.48 
L 189.835035 384.48 
L 193.373412 384.479999 
L 196.911789 384.473412 
L 200.450166 384.479998 
L 203.988544 384.48 
L 207.526921 384.48 
L 211.065298 384.475949 
L 214.603675 384.478933 
L 218.142053 384.475072 
L 221.68043 384.479999 
L 225.218807 384.473415 
L 228.757184 384.477512 
L 232.295562 384.473997 
L 235.833939 384.468259 
L 239.372316 384.479942 
L 242.910693 384.462288 
L 246.44907 384.455475 
L 249.987448 384.467218 
L 253.525825 384.468978 
L 257.064202 384.427457 
L 260.602579 384.413494 
L 264.140957 384.393462 
L 267.679334 384.307693 
L 271.217711 384.148174 
L 274.756088 383.819384 
L 278.294465 383.198337 
L 281.832843 381.767861 
L 285.37122 379.844904 
L 288.909597 374.517285 
L 292.447974 366.356307 
L 295.986352 352.998297 
L 299.524729 331.819866 
L 303.063106 301.586049 
L 306.601483 260.397214 
L 310.13986 212.626968 
L 313.678238 166.468399 
L 317.216615 128.412563 
L 320.754992 115.686657 
L 324.293369 136.122011 
L 327.831747 181.442472 
L 331.370124 235.071604 
L 334.908501 281.204958 
L 338.446878 319.025863 
L 341.985255 344.314825 
L 345.523633 361.226814 
L 349.06201 370.800023 
L 352.600387 377.373842 
L 356.138764 380.714524 
L 359.677142 382.493858 
L 363.215519 383.464762 
L 366.753896 383.799401 
L 370.292273 384.162321 
L 373.83065 384.322334 
L 377.369028 384.332581 
L 380.907405 384.399741 
L 384.445782 384.430519 
L 387.984159 384.439166 
L 391.522537 384.464271 
L 395.060914 384.469572 
L 398.599291 384.476844 
L 402.137668 384.461436 
L 405.676045 384.472714 
L 409.214423 384.470268 
L 412.7528 384.467733 
L 416.291177 384.474197 
L 419.829554 384.472325 
L 423.367932 384.473604 
L 426.906309 384.479888 
L 430.444686 384.469338 
L 433.983063 384.479807 
L 437.521441 384.479608 
L 441.059818 384.474364 
L 444.598195 384.48 
L 448.136572 384.48 
L 451.674949 384.48 
L 455.213327 384.47987 
L 458.751704 384.477198 
L 462.290081 384.472479 
L 465.828458 384.479809 
L 469.366836 384.48 
L 472.905213 384.478017 
L 476.44359 384.479754 
L 479.981967 384.48 
L 483.520344 384.48 
L 487.058722 384.48 
L 490.597099 384.48 
L 494.135476 384.476458 
L 497.673853 384.479927 
" style="fill:none;stroke:#7f7f7f;stroke-linecap:square;stroke-width:2;"/>
   </g>
   <g id="line2d_24">
    <path clip-path="url(#p3e61eb2db4)" d="M 259.331376 384.479922 
L 261.330681 384.464553 
L 263.329987 384.479162 
L 265.329292 384.475235 
L 267.328598 384.455948 
L 269.327903 384.46436 
L 271.327209 384.451331 
L 273.326514 384.442805 
L 275.32582 384.442214 
L 277.325125 384.364794 
L 279.324431 384.302258 
L 281.323736 384.176416 
L 283.323042 383.851931 
L 285.322347 383.450904 
L 287.321653 382.615232 
L 289.320958 381.42579 
L 291.320264 379.193263 
L 293.31957 375.594595 
L 295.318875 370.347086 
L 297.318181 362.247596 
L 299.317486 350.956599 
L 301.316792 335.421815 
L 303.316097 314.762869 
L 305.315403 288.220976 
L 307.314708 258.63744 
L 309.314014 223.379623 
L 311.313319 183.030531 
L 313.312625 144.785963 
L 315.31193 108.186701 
L 317.311236 83.334811 
L 319.310541 68.553515 
L 321.309847 71.553629 
L 323.309152 89.005992 
L 325.308458 118.931964 
L 327.307763 156.938384 
L 329.307069 198.46945 
L 331.306375 237.23178 
L 333.30568 272.165121 
L 335.304986 303.425431 
L 337.304291 325.916895 
L 339.303597 344.248538 
L 341.302902 357.361366 
L 343.302208 366.753322 
L 345.301513 373.713137 
L 347.300819 377.691022 
L 349.300124 380.654061 
L 351.29943 382.268702 
L 353.298735 383.035423 
L 355.298041 383.648558 
L 357.297346 384.040887 
L 359.296652 384.221469 
L 361.295957 384.315064 
L 363.295263 384.409009 
L 365.294568 384.437051 
L 367.293874 384.468874 
L 369.293179 384.464829 
L 371.292485 384.469252 
L 373.291791 384.471671 
L 375.291096 384.479974 
L 377.290402 384.478395 
L 379.289707 384.474451 
L 381.289013 384.475178 
L 383.288318 384.478117 
L 385.287624 384.478841 
L 387.286929 384.478727 
L 389.286235 384.48 
L 391.28554 384.48 
L 393.284846 384.47994 
L 395.284151 384.475595 
L 397.283457 384.479993 
L 399.282762 384.48 
L 401.282068 384.47978 
L 403.281373 384.476642 
L 405.280679 384.479999 
L 407.279984 384.48 
L 409.27929 384.48 
L 411.278596 384.48 
L 413.277901 384.48 
L 415.277207 384.48 
L 417.276512 384.48 
L 419.275818 384.48 
L 421.275123 384.48 
L 423.274429 384.48 
L 425.273734 384.48 
L 427.27304 384.48 
L 429.272345 384.48 
L 431.271651 384.479823 
L 433.270956 384.476413 
L 435.270262 384.479998 
L 437.269567 384.48 
L 439.268873 384.48 
L 441.268178 384.48 
L 443.267484 384.48 
L 445.266789 384.479016 
L 447.266095 384.478522 
L 449.2654 384.48 
L 451.264706 384.48 
L 453.264012 384.479991 
L 455.263317 384.475531 
L 457.262623 384.479948 
" style="fill:none;stroke:#bcbd22;stroke-linecap:square;stroke-width:2;"/>
   </g>
   <g id="line2d_25">
    <path clip-path="url(#p3e61eb2db4)" d="M 210.117188 384.479976 
L 213.876598 384.477848 
L 217.636009 384.479937 
L 221.395419 384.48 
L 225.15483 384.479997 
L 228.914241 384.477381 
L 232.673651 384.473906 
L 236.433062 384.468612 
L 240.192472 384.47176 
L 243.951883 384.45689 
L 247.711294 384.423855 
L 251.470704 384.398649 
L 255.230115 384.303872 
L 258.989526 384.094266 
L 262.748936 383.717138 
L 266.508347 383.021473 
L 270.267757 381.738358 
L 274.027168 379.471578 
L 277.786579 375.743199 
L 281.545989 368.955018 
L 285.3054 358.254182 
L 289.064811 345.029933 
L 292.824221 326.489189 
L 296.583632 302.822244 
L 300.343042 277.566059 
L 304.102453 251.710746 
L 307.861864 232.265524 
L 311.621274 219.797142 
L 315.380685 217.347969 
L 319.140095 223.129154 
L 322.899506 240.153781 
L 326.658917 256.005937 
L 330.418327 274.141512 
L 334.177738 291.457415 
L 337.937149 309.412092 
L 341.696559 322.179028 
L 345.45597 334.423941 
L 349.21538 344.979194 
L 352.974791 352.770026 
L 356.734202 360.063058 
L 360.493612 364.813077 
L 364.253023 368.97708 
L 368.012433 372.196772 
L 371.771844 374.644454 
L 375.531255 376.685069 
L 379.290665 378.167424 
L 383.050076 379.464819 
L 386.809487 380.52704 
L 390.568897 381.302741 
L 394.328308 382.056429 
L 398.087718 382.45588 
L 401.847129 382.843393 
L 405.60654 383.263155 
L 409.36595 383.423336 
L 413.125361 383.561013 
L 416.884772 383.810931 
L 420.644182 383.890025 
L 424.403593 383.998394 
L 428.163003 384.117163 
L 431.922414 384.194721 
L 435.681825 384.258127 
L 439.441235 384.314211 
L 443.200646 384.302063 
L 446.960056 384.338287 
L 450.719467 384.403424 
L 454.478878 384.399877 
L 458.238288 384.414448 
L 461.997699 384.414058 
L 465.75711 384.425941 
L 469.51652 384.418436 
L 473.275931 384.434901 
L 477.035341 384.448888 
L 480.794752 384.441925 
L 484.554163 384.462537 
L 488.313573 384.467411 
L 492.072984 384.462433 
L 495.832395 384.463389 
L 499.591805 384.469858 
L 503.351216 384.469741 
L 507.110626 384.475066 
L 510.870037 384.470636 
L 514.629448 384.474141 
L 518.388858 384.474938 
L 522.148269 384.474891 
L 525.907679 384.477602 
L 529.66709 384.474881 
L 533.426501 384.479943 
L 537.185911 384.47953 
L 540.945322 384.478779 
L 544.704733 384.479616 
L 548.464143 384.47863 
L 552.223554 384.479998 
L 555.982964 384.48 
L 559.742375 384.48 
L 563.501786 384.479823 
L 567.261196 384.478165 
L 571.020607 384.479994 
L 574.780017 384.479937 
L 578.539428 384.477848 
L 582.298839 384.479976 
" style="fill:none;stroke:#17becf;stroke-linecap:square;stroke-width:2;"/>
   </g>
   <g id="patch_3">
    <path d="M 90 384.48 
L 90 51.84 
" style="fill:none;stroke:#000000;stroke-linecap:square;stroke-linejoin:miter;stroke-width:0.8;"/>
   </g>
   <g id="patch_4">
    <path d="M 648 384.48 
L 648 51.84 
" style="fill:none;stroke:#000000;stroke-linecap:square;stroke-linejoin:miter;stroke-width:0.8;"/>
   </g>
   <g id="patch_5">
    <path d="M 90 384.48 
L 648 384.48 
" style="fill:none;stroke:#000000;stroke-linecap:square;stroke-linejoin:miter;stroke-width:0.8;"/>
   </g>
   <g id="patch_6">
    <path d="M 90 51.84 
L 648 51.84 
" style="fill:none;stroke:#000000;stroke-linecap:square;stroke-linejoin:miter;stroke-width:0.8;"/>
   </g>
   <g id="legend_1">
    <g id="patch_7">
     <path d="M 389.03125 209.4025 
L 641 209.4025 
Q 643 209.4025 643 207.4025 
L 643 58.84 
Q 643 56.84 641 56.84 
L 389.03125 56.84 
Q 387.03125 56.84 387.03125 58.84 
L 387.03125 207.4025 
Q 387.03125 209.4025 389.03125 209.4025 
z
" style="fill:#ffffff;opacity:0.8;stroke:#cccccc;stroke-linejoin:miter;"/>
    </g>
    <g id="line2d_26">
     <path d="M 391.03125 64.938437 
L 411.03125 64.938437 
" style="fill:none;stroke:#1f77b4;stroke-linecap:square;stroke-width:2;"/>
    </g>
    <g id="line2d_27"/>
    <g id="text_18">
     <!-- MobilenetV1/Conv2d_5_pointwise/weights -->
     <defs>
      <path d="M 9.8125 72.90625 
L 24.515625 72.90625 
L 43.109375 23.296875 
L 61.8125 72.90625 
L 76.515625 72.90625 
L 76.515625 0 
L 66.890625 0 
L 66.890625 64.015625 
L 48.09375 14.015625 
L 38.1875 14.015625 
L 19.390625 64.015625 
L 19.390625 0 
L 9.8125 0 
z
" id="DejaVuSans-77"/>
      <path d="M 25.390625 72.90625 
L 33.6875 72.90625 
L 8.296875 -9.28125 
L 0 -9.28125 
z
" id="DejaVuSans-47"/>
      <path d="M 64.40625 67.28125 
L 64.40625 56.890625 
Q 59.421875 61.53125 53.78125 63.8125 
Q 48.140625 66.109375 41.796875 66.109375 
Q 29.296875 66.109375 22.65625 58.46875 
Q 16.015625 50.828125 16.015625 36.375 
Q 16.015625 21.96875 22.65625 14.328125 
Q 29.296875 6.6875 41.796875 6.6875 
Q 48.140625 6.6875 53.78125 8.984375 
Q 59.421875 11.28125 64.40625 15.921875 
L 64.40625 5.609375 
Q 59.234375 2.09375 53.4375 0.328125 
Q 47.65625 -1.421875 41.21875 -1.421875 
Q 24.65625 -1.421875 15.125 8.703125 
Q 5.609375 18.84375 5.609375 36.375 
Q 5.609375 53.953125 15.125 64.078125 
Q 24.65625 74.21875 41.21875 74.21875 
Q 47.75 74.21875 53.53125 72.484375 
Q 59.328125 70.75 64.40625 67.28125 
z
" id="DejaVuSans-67"/>
      <path d="M 2.984375 54.6875 
L 12.5 54.6875 
L 29.59375 8.796875 
L 46.6875 54.6875 
L 56.203125 54.6875 
L 35.6875 0 
L 23.484375 0 
z
" id="DejaVuSans-118"/>
      <path d="M 50.984375 -16.609375 
L 50.984375 -23.578125 
L -0.984375 -23.578125 
L -0.984375 -16.609375 
z
" id="DejaVuSans-95"/>
      <path d="M 18.109375 8.203125 
L 18.109375 -20.796875 
L 9.078125 -20.796875 
L 9.078125 54.6875 
L 18.109375 54.6875 
L 18.109375 46.390625 
Q 20.953125 51.265625 25.265625 53.625 
Q 29.59375 56 35.59375 56 
Q 45.5625 56 51.78125 48.09375 
Q 58.015625 40.1875 58.015625 27.296875 
Q 58.015625 14.40625 51.78125 6.484375 
Q 45.5625 -1.421875 35.59375 -1.421875 
Q 29.59375 -1.421875 25.265625 0.953125 
Q 20.953125 3.328125 18.109375 8.203125 
z
M 48.6875 27.296875 
Q 48.6875 37.203125 44.609375 42.84375 
Q 40.53125 48.484375 33.40625 48.484375 
Q 26.265625 48.484375 22.1875 42.84375 
Q 18.109375 37.203125 18.109375 27.296875 
Q 18.109375 17.390625 22.1875 11.75 
Q 26.265625 6.109375 33.40625 6.109375 
Q 40.53125 6.109375 44.609375 11.75 
Q 48.6875 17.390625 48.6875 27.296875 
z
" id="DejaVuSans-112"/>
      <path d="M 4.203125 54.6875 
L 13.1875 54.6875 
L 24.421875 12.015625 
L 35.59375 54.6875 
L 46.1875 54.6875 
L 57.421875 12.015625 
L 68.609375 54.6875 
L 77.59375 54.6875 
L 63.28125 0 
L 52.6875 0 
L 40.921875 44.828125 
L 29.109375 0 
L 18.5 0 
z
" id="DejaVuSans-119"/>
      <path d="M 45.40625 27.984375 
Q 45.40625 37.75 41.375 43.109375 
Q 37.359375 48.484375 30.078125 48.484375 
Q 22.859375 48.484375 18.828125 43.109375 
Q 14.796875 37.75 14.796875 27.984375 
Q 14.796875 18.265625 18.828125 12.890625 
Q 22.859375 7.515625 30.078125 7.515625 
Q 37.359375 7.515625 41.375 12.890625 
Q 45.40625 18.265625 45.40625 27.984375 
z
M 54.390625 6.78125 
Q 54.390625 -7.171875 48.1875 -13.984375 
Q 42 -20.796875 29.203125 -20.796875 
Q 24.46875 -20.796875 20.265625 -20.09375 
Q 16.0625 -19.390625 12.109375 -17.921875 
L 12.109375 -9.1875 
Q 16.0625 -11.328125 19.921875 -12.34375 
Q 23.78125 -13.375 27.78125 -13.375 
Q 36.625 -13.375 41.015625 -8.765625 
Q 45.40625 -4.15625 45.40625 5.171875 
L 45.40625 9.625 
Q 42.625 4.78125 38.28125 2.390625 
Q 33.9375 0 27.875 0 
Q 17.828125 0 11.671875 7.65625 
Q 5.515625 15.328125 5.515625 27.984375 
Q 5.515625 40.671875 11.671875 48.328125 
Q 17.828125 56 27.875 56 
Q 33.9375 56 38.28125 53.609375 
Q 42.625 51.21875 45.40625 46.390625 
L 45.40625 54.6875 
L 54.390625 54.6875 
z
" id="DejaVuSans-103"/>
      <path d="M 54.890625 33.015625 
L 54.890625 0 
L 45.90625 0 
L 45.90625 32.71875 
Q 45.90625 40.484375 42.875 44.328125 
Q 39.84375 48.1875 33.796875 48.1875 
Q 26.515625 48.1875 22.3125 43.546875 
Q 18.109375 38.921875 18.109375 30.90625 
L 18.109375 0 
L 9.078125 0 
L 9.078125 75.984375 
L 18.109375 75.984375 
L 18.109375 46.1875 
Q 21.34375 51.125 25.703125 53.5625 
Q 30.078125 56 35.796875 56 
Q 45.21875 56 50.046875 50.171875 
Q 54.890625 44.34375 54.890625 33.015625 
z
" id="DejaVuSans-104"/>
     </defs>
     <g transform="translate(419.03125 68.438437)scale(0.1 -0.1)">
      <use xlink:href="#DejaVuSans-77"/>
      <use x="86.279297" xlink:href="#DejaVuSans-111"/>
      <use x="147.460938" xlink:href="#DejaVuSans-98"/>
      <use x="210.9375" xlink:href="#DejaVuSans-105"/>
      <use x="238.720703" xlink:href="#DejaVuSans-108"/>
      <use x="266.503906" xlink:href="#DejaVuSans-101"/>
      <use x="328.027344" xlink:href="#DejaVuSans-110"/>
      <use x="391.40625" xlink:href="#DejaVuSans-101"/>
      <use x="452.929688" xlink:href="#DejaVuSans-116"/>
      <use x="492.138672" xlink:href="#DejaVuSans-86"/>
      <use x="560.546875" xlink:href="#DejaVuSans-49"/>
      <use x="624.169922" xlink:href="#DejaVuSans-47"/>
      <use x="657.861328" xlink:href="#DejaVuSans-67"/>
      <use x="727.685547" xlink:href="#DejaVuSans-111"/>
      <use x="788.867188" xlink:href="#DejaVuSans-110"/>
      <use x="852.246094" xlink:href="#DejaVuSans-118"/>
      <use x="911.425781" xlink:href="#DejaVuSans-50"/>
      <use x="975.048828" xlink:href="#DejaVuSans-100"/>
      <use x="1038.525391" xlink:href="#DejaVuSans-95"/>
      <use x="1088.525391" xlink:href="#DejaVuSans-53"/>
      <use x="1152.148438" xlink:href="#DejaVuSans-95"/>
      <use x="1202.148438" xlink:href="#DejaVuSans-112"/>
      <use x="1265.625" xlink:href="#DejaVuSans-111"/>
      <use x="1326.806641" xlink:href="#DejaVuSans-105"/>
      <use x="1354.589844" xlink:href="#DejaVuSans-110"/>
      <use x="1417.96875" xlink:href="#DejaVuSans-116"/>
      <use x="1457.177734" xlink:href="#DejaVuSans-119"/>
      <use x="1538.964844" xlink:href="#DejaVuSans-105"/>
      <use x="1566.748047" xlink:href="#DejaVuSans-115"/>
      <use x="1618.847656" xlink:href="#DejaVuSans-101"/>
      <use x="1680.371094" xlink:href="#DejaVuSans-47"/>
      <use x="1714.0625" xlink:href="#DejaVuSans-119"/>
      <use x="1795.849609" xlink:href="#DejaVuSans-101"/>
      <use x="1857.373047" xlink:href="#DejaVuSans-105"/>
      <use x="1885.15625" xlink:href="#DejaVuSans-103"/>
      <use x="1948.632812" xlink:href="#DejaVuSans-104"/>
      <use x="2012.011719" xlink:href="#DejaVuSans-116"/>
      <use x="2051.220703" xlink:href="#DejaVuSans-115"/>
     </g>
    </g>
    <g id="line2d_28">
     <path d="M 391.03125 79.894687 
L 411.03125 79.894687 
" style="fill:none;stroke:#ff7f0e;stroke-linecap:square;stroke-width:2;"/>
    </g>
    <g id="line2d_29"/>
    <g id="text_19">
     <!-- MobilenetV1/Conv2d_6_pointwise/weights -->
     <g transform="translate(419.03125 83.394687)scale(0.1 -0.1)">
      <use xlink:href="#DejaVuSans-77"/>
      <use x="86.279297" xlink:href="#DejaVuSans-111"/>
      <use x="147.460938" xlink:href="#DejaVuSans-98"/>
      <use x="210.9375" xlink:href="#DejaVuSans-105"/>
      <use x="238.720703" xlink:href="#DejaVuSans-108"/>
      <use x="266.503906" xlink:href="#DejaVuSans-101"/>
      <use x="328.027344" xlink:href="#DejaVuSans-110"/>
      <use x="391.40625" xlink:href="#DejaVuSans-101"/>
      <use x="452.929688" xlink:href="#DejaVuSans-116"/>
      <use x="492.138672" xlink:href="#DejaVuSans-86"/>
      <use x="560.546875" xlink:href="#DejaVuSans-49"/>
      <use x="624.169922" xlink:href="#DejaVuSans-47"/>
      <use x="657.861328" xlink:href="#DejaVuSans-67"/>
      <use x="727.685547" xlink:href="#DejaVuSans-111"/>
      <use x="788.867188" xlink:href="#DejaVuSans-110"/>
      <use x="852.246094" xlink:href="#DejaVuSans-118"/>
      <use x="911.425781" xlink:href="#DejaVuSans-50"/>
      <use x="975.048828" xlink:href="#DejaVuSans-100"/>
      <use x="1038.525391" xlink:href="#DejaVuSans-95"/>
      <use x="1088.525391" xlink:href="#DejaVuSans-54"/>
      <use x="1152.148438" xlink:href="#DejaVuSans-95"/>
      <use x="1202.148438" xlink:href="#DejaVuSans-112"/>
      <use x="1265.625" xlink:href="#DejaVuSans-111"/>
      <use x="1326.806641" xlink:href="#DejaVuSans-105"/>
      <use x="1354.589844" xlink:href="#DejaVuSans-110"/>
      <use x="1417.96875" xlink:href="#DejaVuSans-116"/>
      <use x="1457.177734" xlink:href="#DejaVuSans-119"/>
      <use x="1538.964844" xlink:href="#DejaVuSans-105"/>
      <use x="1566.748047" xlink:href="#DejaVuSans-115"/>
      <use x="1618.847656" xlink:href="#DejaVuSans-101"/>
      <use x="1680.371094" xlink:href="#DejaVuSans-47"/>
      <use x="1714.0625" xlink:href="#DejaVuSans-119"/>
      <use x="1795.849609" xlink:href="#DejaVuSans-101"/>
      <use x="1857.373047" xlink:href="#DejaVuSans-105"/>
      <use x="1885.15625" xlink:href="#DejaVuSans-103"/>
      <use x="1948.632812" xlink:href="#DejaVuSans-104"/>
      <use x="2012.011719" xlink:href="#DejaVuSans-116"/>
      <use x="2051.220703" xlink:href="#DejaVuSans-115"/>
     </g>
    </g>
    <g id="line2d_30">
     <path d="M 391.03125 94.850937 
L 411.03125 94.850937 
" style="fill:none;stroke:#2ca02c;stroke-linecap:square;stroke-width:2;"/>
    </g>
    <g id="line2d_31"/>
    <g id="text_20">
     <!-- MobilenetV1/Conv2d_7_pointwise/weights -->
     <g transform="translate(419.03125 98.350937)scale(0.1 -0.1)">
      <use xlink:href="#DejaVuSans-77"/>
      <use x="86.279297" xlink:href="#DejaVuSans-111"/>
      <use x="147.460938" xlink:href="#DejaVuSans-98"/>
      <use x="210.9375" xlink:href="#DejaVuSans-105"/>
      <use x="238.720703" xlink:href="#DejaVuSans-108"/>
      <use x="266.503906" xlink:href="#DejaVuSans-101"/>
      <use x="328.027344" xlink:href="#DejaVuSans-110"/>
      <use x="391.40625" xlink:href="#DejaVuSans-101"/>
      <use x="452.929688" xlink:href="#DejaVuSans-116"/>
      <use x="492.138672" xlink:href="#DejaVuSans-86"/>
      <use x="560.546875" xlink:href="#DejaVuSans-49"/>
      <use x="624.169922" xlink:href="#DejaVuSans-47"/>
      <use x="657.861328" xlink:href="#DejaVuSans-67"/>
      <use x="727.685547" xlink:href="#DejaVuSans-111"/>
      <use x="788.867188" xlink:href="#DejaVuSans-110"/>
      <use x="852.246094" xlink:href="#DejaVuSans-118"/>
      <use x="911.425781" xlink:href="#DejaVuSans-50"/>
      <use x="975.048828" xlink:href="#DejaVuSans-100"/>
      <use x="1038.525391" xlink:href="#DejaVuSans-95"/>
      <use x="1088.525391" xlink:href="#DejaVuSans-55"/>
      <use x="1152.148438" xlink:href="#DejaVuSans-95"/>
      <use x="1202.148438" xlink:href="#DejaVuSans-112"/>
      <use x="1265.625" xlink:href="#DejaVuSans-111"/>
      <use x="1326.806641" xlink:href="#DejaVuSans-105"/>
      <use x="1354.589844" xlink:href="#DejaVuSans-110"/>
      <use x="1417.96875" xlink:href="#DejaVuSans-116"/>
      <use x="1457.177734" xlink:href="#DejaVuSans-119"/>
      <use x="1538.964844" xlink:href="#DejaVuSans-105"/>
      <use x="1566.748047" xlink:href="#DejaVuSans-115"/>
      <use x="1618.847656" xlink:href="#DejaVuSans-101"/>
      <use x="1680.371094" xlink:href="#DejaVuSans-47"/>
      <use x="1714.0625" xlink:href="#DejaVuSans-119"/>
      <use x="1795.849609" xlink:href="#DejaVuSans-101"/>
      <use x="1857.373047" xlink:href="#DejaVuSans-105"/>
      <use x="1885.15625" xlink:href="#DejaVuSans-103"/>
      <use x="1948.632812" xlink:href="#DejaVuSans-104"/>
      <use x="2012.011719" xlink:href="#DejaVuSans-116"/>
      <use x="2051.220703" xlink:href="#DejaVuSans-115"/>
     </g>
    </g>
    <g id="line2d_32">
     <path d="M 391.03125 109.807187 
L 411.03125 109.807187 
" style="fill:none;stroke:#d62728;stroke-linecap:square;stroke-width:2;"/>
    </g>
    <g id="line2d_33"/>
    <g id="text_21">
     <!-- MobilenetV1/Conv2d_8_pointwise/weights -->
     <g transform="translate(419.03125 113.307187)scale(0.1 -0.1)">
      <use xlink:href="#DejaVuSans-77"/>
      <use x="86.279297" xlink:href="#DejaVuSans-111"/>
      <use x="147.460938" xlink:href="#DejaVuSans-98"/>
      <use x="210.9375" xlink:href="#DejaVuSans-105"/>
      <use x="238.720703" xlink:href="#DejaVuSans-108"/>
      <use x="266.503906" xlink:href="#DejaVuSans-101"/>
      <use x="328.027344" xlink:href="#DejaVuSans-110"/>
      <use x="391.40625" xlink:href="#DejaVuSans-101"/>
      <use x="452.929688" xlink:href="#DejaVuSans-116"/>
      <use x="492.138672" xlink:href="#DejaVuSans-86"/>
      <use x="560.546875" xlink:href="#DejaVuSans-49"/>
      <use x="624.169922" xlink:href="#DejaVuSans-47"/>
      <use x="657.861328" xlink:href="#DejaVuSans-67"/>
      <use x="727.685547" xlink:href="#DejaVuSans-111"/>
      <use x="788.867188" xlink:href="#DejaVuSans-110"/>
      <use x="852.246094" xlink:href="#DejaVuSans-118"/>
      <use x="911.425781" xlink:href="#DejaVuSans-50"/>
      <use x="975.048828" xlink:href="#DejaVuSans-100"/>
      <use x="1038.525391" xlink:href="#DejaVuSans-95"/>
      <use x="1088.525391" xlink:href="#DejaVuSans-56"/>
      <use x="1152.148438" xlink:href="#DejaVuSans-95"/>
      <use x="1202.148438" xlink:href="#DejaVuSans-112"/>
      <use x="1265.625" xlink:href="#DejaVuSans-111"/>
      <use x="1326.806641" xlink:href="#DejaVuSans-105"/>
      <use x="1354.589844" xlink:href="#DejaVuSans-110"/>
      <use x="1417.96875" xlink:href="#DejaVuSans-116"/>
      <use x="1457.177734" xlink:href="#DejaVuSans-119"/>
      <use x="1538.964844" xlink:href="#DejaVuSans-105"/>
      <use x="1566.748047" xlink:href="#DejaVuSans-115"/>
      <use x="1618.847656" xlink:href="#DejaVuSans-101"/>
      <use x="1680.371094" xlink:href="#DejaVuSans-47"/>
      <use x="1714.0625" xlink:href="#DejaVuSans-119"/>
      <use x="1795.849609" xlink:href="#DejaVuSans-101"/>
      <use x="1857.373047" xlink:href="#DejaVuSans-105"/>
      <use x="1885.15625" xlink:href="#DejaVuSans-103"/>
      <use x="1948.632812" xlink:href="#DejaVuSans-104"/>
      <use x="2012.011719" xlink:href="#DejaVuSans-116"/>
      <use x="2051.220703" xlink:href="#DejaVuSans-115"/>
     </g>
    </g>
    <g id="line2d_34">
     <path d="M 391.03125 124.763438 
L 411.03125 124.763438 
" style="fill:none;stroke:#9467bd;stroke-linecap:square;stroke-width:2;"/>
    </g>
    <g id="line2d_35"/>
    <g id="text_22">
     <!-- MobilenetV1/Conv2d_9_pointwise/weights -->
     <defs>
      <path d="M 10.984375 1.515625 
L 10.984375 10.5 
Q 14.703125 8.734375 18.5 7.8125 
Q 22.3125 6.890625 25.984375 6.890625 
Q 35.75 6.890625 40.890625 13.453125 
Q 46.046875 20.015625 46.78125 33.40625 
Q 43.953125 29.203125 39.59375 26.953125 
Q 35.25 24.703125 29.984375 24.703125 
Q 19.046875 24.703125 12.671875 31.3125 
Q 6.296875 37.9375 6.296875 49.421875 
Q 6.296875 60.640625 12.9375 67.421875 
Q 19.578125 74.21875 30.609375 74.21875 
Q 43.265625 74.21875 49.921875 64.515625 
Q 56.59375 54.828125 56.59375 36.375 
Q 56.59375 19.140625 48.40625 8.859375 
Q 40.234375 -1.421875 26.421875 -1.421875 
Q 22.703125 -1.421875 18.890625 -0.6875 
Q 15.09375 0.046875 10.984375 1.515625 
z
M 30.609375 32.421875 
Q 37.25 32.421875 41.125 36.953125 
Q 45.015625 41.5 45.015625 49.421875 
Q 45.015625 57.28125 41.125 61.84375 
Q 37.25 66.40625 30.609375 66.40625 
Q 23.96875 66.40625 20.09375 61.84375 
Q 16.21875 57.28125 16.21875 49.421875 
Q 16.21875 41.5 20.09375 36.953125 
Q 23.96875 32.421875 30.609375 32.421875 
z
" id="DejaVuSans-57"/>
     </defs>
     <g transform="translate(419.03125 128.263438)scale(0.1 -0.1)">
      <use xlink:href="#DejaVuSans-77"/>
      <use x="86.279297" xlink:href="#DejaVuSans-111"/>
      <use x="147.460938" xlink:href="#DejaVuSans-98"/>
      <use x="210.9375" xlink:href="#DejaVuSans-105"/>
      <use x="238.720703" xlink:href="#DejaVuSans-108"/>
      <use x="266.503906" xlink:href="#DejaVuSans-101"/>
      <use x="328.027344" xlink:href="#DejaVuSans-110"/>
      <use x="391.40625" xlink:href="#DejaVuSans-101"/>
      <use x="452.929688" xlink:href="#DejaVuSans-116"/>
      <use x="492.138672" xlink:href="#DejaVuSans-86"/>
      <use x="560.546875" xlink:href="#DejaVuSans-49"/>
      <use x="624.169922" xlink:href="#DejaVuSans-47"/>
      <use x="657.861328" xlink:href="#DejaVuSans-67"/>
      <use x="727.685547" xlink:href="#DejaVuSans-111"/>
      <use x="788.867188" xlink:href="#DejaVuSans-110"/>
      <use x="852.246094" xlink:href="#DejaVuSans-118"/>
      <use x="911.425781" xlink:href="#DejaVuSans-50"/>
      <use x="975.048828" xlink:href="#DejaVuSans-100"/>
      <use x="1038.525391" xlink:href="#DejaVuSans-95"/>
      <use x="1088.525391" xlink:href="#DejaVuSans-57"/>
      <use x="1152.148438" xlink:href="#DejaVuSans-95"/>
      <use x="1202.148438" xlink:href="#DejaVuSans-112"/>
      <use x="1265.625" xlink:href="#DejaVuSans-111"/>
      <use x="1326.806641" xlink:href="#DejaVuSans-105"/>
      <use x="1354.589844" xlink:href="#DejaVuSans-110"/>
      <use x="1417.96875" xlink:href="#DejaVuSans-116"/>
      <use x="1457.177734" xlink:href="#DejaVuSans-119"/>
      <use x="1538.964844" xlink:href="#DejaVuSans-105"/>
      <use x="1566.748047" xlink:href="#DejaVuSans-115"/>
      <use x="1618.847656" xlink:href="#DejaVuSans-101"/>
      <use x="1680.371094" xlink:href="#DejaVuSans-47"/>
      <use x="1714.0625" xlink:href="#DejaVuSans-119"/>
      <use x="1795.849609" xlink:href="#DejaVuSans-101"/>
      <use x="1857.373047" xlink:href="#DejaVuSans-105"/>
      <use x="1885.15625" xlink:href="#DejaVuSans-103"/>
      <use x="1948.632812" xlink:href="#DejaVuSans-104"/>
      <use x="2012.011719" xlink:href="#DejaVuSans-116"/>
      <use x="2051.220703" xlink:href="#DejaVuSans-115"/>
     </g>
    </g>
    <g id="line2d_36">
     <path d="M 391.03125 139.719687 
L 411.03125 139.719687 
" style="fill:none;stroke:#8c564b;stroke-linecap:square;stroke-width:2;"/>
    </g>
    <g id="line2d_37"/>
    <g id="text_23">
     <!-- MobilenetV1/Conv2d_10_pointwise/weights -->
     <g transform="translate(419.03125 143.219687)scale(0.1 -0.1)">
      <use xlink:href="#DejaVuSans-77"/>
      <use x="86.279297" xlink:href="#DejaVuSans-111"/>
      <use x="147.460938" xlink:href="#DejaVuSans-98"/>
      <use x="210.9375" xlink:href="#DejaVuSans-105"/>
      <use x="238.720703" xlink:href="#DejaVuSans-108"/>
      <use x="266.503906" xlink:href="#DejaVuSans-101"/>
      <use x="328.027344" xlink:href="#DejaVuSans-110"/>
      <use x="391.40625" xlink:href="#DejaVuSans-101"/>
      <use x="452.929688" xlink:href="#DejaVuSans-116"/>
      <use x="492.138672" xlink:href="#DejaVuSans-86"/>
      <use x="560.546875" xlink:href="#DejaVuSans-49"/>
      <use x="624.169922" xlink:href="#DejaVuSans-47"/>
      <use x="657.861328" xlink:href="#DejaVuSans-67"/>
      <use x="727.685547" xlink:href="#DejaVuSans-111"/>
      <use x="788.867188" xlink:href="#DejaVuSans-110"/>
      <use x="852.246094" xlink:href="#DejaVuSans-118"/>
      <use x="911.425781" xlink:href="#DejaVuSans-50"/>
      <use x="975.048828" xlink:href="#DejaVuSans-100"/>
      <use x="1038.525391" xlink:href="#DejaVuSans-95"/>
      <use x="1088.525391" xlink:href="#DejaVuSans-49"/>
      <use x="1152.148438" xlink:href="#DejaVuSans-48"/>
      <use x="1215.771484" xlink:href="#DejaVuSans-95"/>
      <use x="1265.771484" xlink:href="#DejaVuSans-112"/>
      <use x="1329.248047" xlink:href="#DejaVuSans-111"/>
      <use x="1390.429688" xlink:href="#DejaVuSans-105"/>
      <use x="1418.212891" xlink:href="#DejaVuSans-110"/>
      <use x="1481.591797" xlink:href="#DejaVuSans-116"/>
      <use x="1520.800781" xlink:href="#DejaVuSans-119"/>
      <use x="1602.587891" xlink:href="#DejaVuSans-105"/>
      <use x="1630.371094" xlink:href="#DejaVuSans-115"/>
      <use x="1682.470703" xlink:href="#DejaVuSans-101"/>
      <use x="1743.994141" xlink:href="#DejaVuSans-47"/>
      <use x="1777.685547" xlink:href="#DejaVuSans-119"/>
      <use x="1859.472656" xlink:href="#DejaVuSans-101"/>
      <use x="1920.996094" xlink:href="#DejaVuSans-105"/>
      <use x="1948.779297" xlink:href="#DejaVuSans-103"/>
      <use x="2012.255859" xlink:href="#DejaVuSans-104"/>
      <use x="2075.634766" xlink:href="#DejaVuSans-116"/>
      <use x="2114.84375" xlink:href="#DejaVuSans-115"/>
     </g>
    </g>
    <g id="line2d_38">
     <path d="M 391.03125 154.675937 
L 411.03125 154.675937 
" style="fill:none;stroke:#e377c2;stroke-linecap:square;stroke-width:2;"/>
    </g>
    <g id="line2d_39"/>
    <g id="text_24">
     <!-- MobilenetV1/Conv2d_11_pointwise/weights -->
     <g transform="translate(419.03125 158.175937)scale(0.1 -0.1)">
      <use xlink:href="#DejaVuSans-77"/>
      <use x="86.279297" xlink:href="#DejaVuSans-111"/>
      <use x="147.460938" xlink:href="#DejaVuSans-98"/>
      <use x="210.9375" xlink:href="#DejaVuSans-105"/>
      <use x="238.720703" xlink:href="#DejaVuSans-108"/>
      <use x="266.503906" xlink:href="#DejaVuSans-101"/>
      <use x="328.027344" xlink:href="#DejaVuSans-110"/>
      <use x="391.40625" xlink:href="#DejaVuSans-101"/>
      <use x="452.929688" xlink:href="#DejaVuSans-116"/>
      <use x="492.138672" xlink:href="#DejaVuSans-86"/>
      <use x="560.546875" xlink:href="#DejaVuSans-49"/>
      <use x="624.169922" xlink:href="#DejaVuSans-47"/>
      <use x="657.861328" xlink:href="#DejaVuSans-67"/>
      <use x="727.685547" xlink:href="#DejaVuSans-111"/>
      <use x="788.867188" xlink:href="#DejaVuSans-110"/>
      <use x="852.246094" xlink:href="#DejaVuSans-118"/>
      <use x="911.425781" xlink:href="#DejaVuSans-50"/>
      <use x="975.048828" xlink:href="#DejaVuSans-100"/>
      <use x="1038.525391" xlink:href="#DejaVuSans-95"/>
      <use x="1088.525391" xlink:href="#DejaVuSans-49"/>
      <use x="1152.148438" xlink:href="#DejaVuSans-49"/>
      <use x="1215.771484" xlink:href="#DejaVuSans-95"/>
      <use x="1265.771484" xlink:href="#DejaVuSans-112"/>
      <use x="1329.248047" xlink:href="#DejaVuSans-111"/>
      <use x="1390.429688" xlink:href="#DejaVuSans-105"/>
      <use x="1418.212891" xlink:href="#DejaVuSans-110"/>
      <use x="1481.591797" xlink:href="#DejaVuSans-116"/>
      <use x="1520.800781" xlink:href="#DejaVuSans-119"/>
      <use x="1602.587891" xlink:href="#DejaVuSans-105"/>
      <use x="1630.371094" xlink:href="#DejaVuSans-115"/>
      <use x="1682.470703" xlink:href="#DejaVuSans-101"/>
      <use x="1743.994141" xlink:href="#DejaVuSans-47"/>
      <use x="1777.685547" xlink:href="#DejaVuSans-119"/>
      <use x="1859.472656" xlink:href="#DejaVuSans-101"/>
      <use x="1920.996094" xlink:href="#DejaVuSans-105"/>
      <use x="1948.779297" xlink:href="#DejaVuSans-103"/>
      <use x="2012.255859" xlink:href="#DejaVuSans-104"/>
      <use x="2075.634766" xlink:href="#DejaVuSans-116"/>
      <use x="2114.84375" xlink:href="#DejaVuSans-115"/>
     </g>
    </g>
    <g id="line2d_40">
     <path d="M 391.03125 169.632187 
L 411.03125 169.632187 
" style="fill:none;stroke:#7f7f7f;stroke-linecap:square;stroke-width:2;"/>
    </g>
    <g id="line2d_41"/>
    <g id="text_25">
     <!-- MobilenetV1/Conv2d_12_pointwise/weights -->
     <g transform="translate(419.03125 173.132187)scale(0.1 -0.1)">
      <use xlink:href="#DejaVuSans-77"/>
      <use x="86.279297" xlink:href="#DejaVuSans-111"/>
      <use x="147.460938" xlink:href="#DejaVuSans-98"/>
      <use x="210.9375" xlink:href="#DejaVuSans-105"/>
      <use x="238.720703" xlink:href="#DejaVuSans-108"/>
      <use x="266.503906" xlink:href="#DejaVuSans-101"/>
      <use x="328.027344" xlink:href="#DejaVuSans-110"/>
      <use x="391.40625" xlink:href="#DejaVuSans-101"/>
      <use x="452.929688" xlink:href="#DejaVuSans-116"/>
      <use x="492.138672" xlink:href="#DejaVuSans-86"/>
      <use x="560.546875" xlink:href="#DejaVuSans-49"/>
      <use x="624.169922" xlink:href="#DejaVuSans-47"/>
      <use x="657.861328" xlink:href="#DejaVuSans-67"/>
      <use x="727.685547" xlink:href="#DejaVuSans-111"/>
      <use x="788.867188" xlink:href="#DejaVuSans-110"/>
      <use x="852.246094" xlink:href="#DejaVuSans-118"/>
      <use x="911.425781" xlink:href="#DejaVuSans-50"/>
      <use x="975.048828" xlink:href="#DejaVuSans-100"/>
      <use x="1038.525391" xlink:href="#DejaVuSans-95"/>
      <use x="1088.525391" xlink:href="#DejaVuSans-49"/>
      <use x="1152.148438" xlink:href="#DejaVuSans-50"/>
      <use x="1215.771484" xlink:href="#DejaVuSans-95"/>
      <use x="1265.771484" xlink:href="#DejaVuSans-112"/>
      <use x="1329.248047" xlink:href="#DejaVuSans-111"/>
      <use x="1390.429688" xlink:href="#DejaVuSans-105"/>
      <use x="1418.212891" xlink:href="#DejaVuSans-110"/>
      <use x="1481.591797" xlink:href="#DejaVuSans-116"/>
      <use x="1520.800781" xlink:href="#DejaVuSans-119"/>
      <use x="1602.587891" xlink:href="#DejaVuSans-105"/>
      <use x="1630.371094" xlink:href="#DejaVuSans-115"/>
      <use x="1682.470703" xlink:href="#DejaVuSans-101"/>
      <use x="1743.994141" xlink:href="#DejaVuSans-47"/>
      <use x="1777.685547" xlink:href="#DejaVuSans-119"/>
      <use x="1859.472656" xlink:href="#DejaVuSans-101"/>
      <use x="1920.996094" xlink:href="#DejaVuSans-105"/>
      <use x="1948.779297" xlink:href="#DejaVuSans-103"/>
      <use x="2012.255859" xlink:href="#DejaVuSans-104"/>
      <use x="2075.634766" xlink:href="#DejaVuSans-116"/>
      <use x="2114.84375" xlink:href="#DejaVuSans-115"/>
     </g>
    </g>
    <g id="line2d_42">
     <path d="M 391.03125 184.588437 
L 411.03125 184.588437 
" style="fill:none;stroke:#bcbd22;stroke-linecap:square;stroke-width:2;"/>
    </g>
    <g id="line2d_43"/>
    <g id="text_26">
     <!-- MobilenetV1/Conv2d_13_pointwise/weights -->
     <defs>
      <path d="M 40.578125 39.3125 
Q 47.65625 37.796875 51.625 33 
Q 55.609375 28.21875 55.609375 21.1875 
Q 55.609375 10.40625 48.1875 4.484375 
Q 40.765625 -1.421875 27.09375 -1.421875 
Q 22.515625 -1.421875 17.65625 -0.515625 
Q 12.796875 0.390625 7.625 2.203125 
L 7.625 11.71875 
Q 11.71875 9.328125 16.59375 8.109375 
Q 21.484375 6.890625 26.8125 6.890625 
Q 36.078125 6.890625 40.9375 10.546875 
Q 45.796875 14.203125 45.796875 21.1875 
Q 45.796875 27.640625 41.28125 31.265625 
Q 36.765625 34.90625 28.71875 34.90625 
L 20.21875 34.90625 
L 20.21875 43.015625 
L 29.109375 43.015625 
Q 36.375 43.015625 40.234375 45.921875 
Q 44.09375 48.828125 44.09375 54.296875 
Q 44.09375 59.90625 40.109375 62.90625 
Q 36.140625 65.921875 28.71875 65.921875 
Q 24.65625 65.921875 20.015625 65.03125 
Q 15.375 64.15625 9.8125 62.3125 
L 9.8125 71.09375 
Q 15.4375 72.65625 20.34375 73.4375 
Q 25.25 74.21875 29.59375 74.21875 
Q 40.828125 74.21875 47.359375 69.109375 
Q 53.90625 64.015625 53.90625 55.328125 
Q 53.90625 49.265625 50.4375 45.09375 
Q 46.96875 40.921875 40.578125 39.3125 
z
" id="DejaVuSans-51"/>
     </defs>
     <g transform="translate(419.03125 188.088437)scale(0.1 -0.1)">
      <use xlink:href="#DejaVuSans-77"/>
      <use x="86.279297" xlink:href="#DejaVuSans-111"/>
      <use x="147.460938" xlink:href="#DejaVuSans-98"/>
      <use x="210.9375" xlink:href="#DejaVuSans-105"/>
      <use x="238.720703" xlink:href="#DejaVuSans-108"/>
      <use x="266.503906" xlink:href="#DejaVuSans-101"/>
      <use x="328.027344" xlink:href="#DejaVuSans-110"/>
      <use x="391.40625" xlink:href="#DejaVuSans-101"/>
      <use x="452.929688" xlink:href="#DejaVuSans-116"/>
      <use x="492.138672" xlink:href="#DejaVuSans-86"/>
      <use x="560.546875" xlink:href="#DejaVuSans-49"/>
      <use x="624.169922" xlink:href="#DejaVuSans-47"/>
      <use x="657.861328" xlink:href="#DejaVuSans-67"/>
      <use x="727.685547" xlink:href="#DejaVuSans-111"/>
      <use x="788.867188" xlink:href="#DejaVuSans-110"/>
      <use x="852.246094" xlink:href="#DejaVuSans-118"/>
      <use x="911.425781" xlink:href="#DejaVuSans-50"/>
      <use x="975.048828" xlink:href="#DejaVuSans-100"/>
      <use x="1038.525391" xlink:href="#DejaVuSans-95"/>
      <use x="1088.525391" xlink:href="#DejaVuSans-49"/>
      <use x="1152.148438" xlink:href="#DejaVuSans-51"/>
      <use x="1215.771484" xlink:href="#DejaVuSans-95"/>
      <use x="1265.771484" xlink:href="#DejaVuSans-112"/>
      <use x="1329.248047" xlink:href="#DejaVuSans-111"/>
      <use x="1390.429688" xlink:href="#DejaVuSans-105"/>
      <use x="1418.212891" xlink:href="#DejaVuSans-110"/>
      <use x="1481.591797" xlink:href="#DejaVuSans-116"/>
      <use x="1520.800781" xlink:href="#DejaVuSans-119"/>
      <use x="1602.587891" xlink:href="#DejaVuSans-105"/>
      <use x="1630.371094" xlink:href="#DejaVuSans-115"/>
      <use x="1682.470703" xlink:href="#DejaVuSans-101"/>
      <use x="1743.994141" xlink:href="#DejaVuSans-47"/>
      <use x="1777.685547" xlink:href="#DejaVuSans-119"/>
      <use x="1859.472656" xlink:href="#DejaVuSans-101"/>
      <use x="1920.996094" xlink:href="#DejaVuSans-105"/>
      <use x="1948.779297" xlink:href="#DejaVuSans-103"/>
      <use x="2012.255859" xlink:href="#DejaVuSans-104"/>
      <use x="2075.634766" xlink:href="#DejaVuSans-116"/>
      <use x="2114.84375" xlink:href="#DejaVuSans-115"/>
     </g>
    </g>
    <g id="line2d_44">
     <path d="M 391.03125 199.544687 
L 411.03125 199.544687 
" style="fill:none;stroke:#17becf;stroke-linecap:square;stroke-width:2;"/>
    </g>
    <g id="line2d_45"/>
    <g id="text_27">
     <!-- MobilenetV1/Logits/Conv2d_1c_1x1/weights -->
     <defs>
      <path d="M 9.8125 72.90625 
L 19.671875 72.90625 
L 19.671875 8.296875 
L 55.171875 8.296875 
L 55.171875 0 
L 9.8125 0 
z
" id="DejaVuSans-76"/>
      <path d="M 54.890625 54.6875 
L 35.109375 28.078125 
L 55.90625 0 
L 45.3125 0 
L 29.390625 21.484375 
L 13.484375 0 
L 2.875 0 
L 24.125 28.609375 
L 4.6875 54.6875 
L 15.28125 54.6875 
L 29.78125 35.203125 
L 44.28125 54.6875 
z
" id="DejaVuSans-120"/>
     </defs>
     <g transform="translate(419.03125 203.044687)scale(0.1 -0.1)">
      <use xlink:href="#DejaVuSans-77"/>
      <use x="86.279297" xlink:href="#DejaVuSans-111"/>
      <use x="147.460938" xlink:href="#DejaVuSans-98"/>
      <use x="210.9375" xlink:href="#DejaVuSans-105"/>
      <use x="238.720703" xlink:href="#DejaVuSans-108"/>
      <use x="266.503906" xlink:href="#DejaVuSans-101"/>
      <use x="328.027344" xlink:href="#DejaVuSans-110"/>
      <use x="391.40625" xlink:href="#DejaVuSans-101"/>
      <use x="452.929688" xlink:href="#DejaVuSans-116"/>
      <use x="492.138672" xlink:href="#DejaVuSans-86"/>
      <use x="560.546875" xlink:href="#DejaVuSans-49"/>
      <use x="624.169922" xlink:href="#DejaVuSans-47"/>
      <use x="657.861328" xlink:href="#DejaVuSans-76"/>
      <use x="713.558594" xlink:href="#DejaVuSans-111"/>
      <use x="774.740234" xlink:href="#DejaVuSans-103"/>
      <use x="838.216797" xlink:href="#DejaVuSans-105"/>
      <use x="866" xlink:href="#DejaVuSans-116"/>
      <use x="905.208984" xlink:href="#DejaVuSans-115"/>
      <use x="957.308594" xlink:href="#DejaVuSans-47"/>
      <use x="991" xlink:href="#DejaVuSans-67"/>
      <use x="1060.824219" xlink:href="#DejaVuSans-111"/>
      <use x="1122.005859" xlink:href="#DejaVuSans-110"/>
      <use x="1185.384766" xlink:href="#DejaVuSans-118"/>
      <use x="1244.564453" xlink:href="#DejaVuSans-50"/>
      <use x="1308.1875" xlink:href="#DejaVuSans-100"/>
      <use x="1371.664062" xlink:href="#DejaVuSans-95"/>
      <use x="1421.664062" xlink:href="#DejaVuSans-49"/>
      <use x="1485.287109" xlink:href="#DejaVuSans-99"/>
      <use x="1540.267578" xlink:href="#DejaVuSans-95"/>
      <use x="1590.267578" xlink:href="#DejaVuSans-49"/>
      <use x="1653.890625" xlink:href="#DejaVuSans-120"/>
      <use x="1713.070312" xlink:href="#DejaVuSans-49"/>
      <use x="1776.693359" xlink:href="#DejaVuSans-47"/>
      <use x="1810.384766" xlink:href="#DejaVuSans-119"/>
      <use x="1892.171875" xlink:href="#DejaVuSans-101"/>
      <use x="1953.695312" xlink:href="#DejaVuSans-105"/>
      <use x="1981.478516" xlink:href="#DejaVuSans-103"/>
      <use x="2044.955078" xlink:href="#DejaVuSans-104"/>
      <use x="2108.333984" xlink:href="#DejaVuSans-116"/>
      <use x="2147.542969" xlink:href="#DejaVuSans-115"/>
     </g>
    </g>
   </g>
  </g>
 </g>
 <defs>
  <clipPath id="p3e61eb2db4">
   <rect height="332.64" width="558" x="90" y="51.84"/>
  </clipPath>
 </defs>
</svg>
